<?xml version="1.0" encoding="UTF-8"?>
<!--Generator: Apple Native CoreSVG 148-->
<!DOCTYPE svg
PUBLIC "-//W3C//DTD SVG 1.1//EN"
       "http://www.w3.org/Graphics/SVG/1.1/DTD/svg11.dtd">
<svg version="1.1" xmlns="http://www.w3.org/2000/svg" xmlns:xlink="http://www.w3.org/1999/xlink" width="3300" height="2200">
 <!--glyph: "uni100788.medium", point size: 100.000000, font version: "Version 16.0d11e1", template writer version: "8"-->
 <g id="Notes">
  <rect height="2200" id="artboard" style="fill:white;opacity:1" width="3300" x="0" y="0"/>
  <line id="" style="fill:none;stroke:black;opacity:1;stroke-width:0.5;" x1="263" x2="3036" y1="292" y2="292"/>
  <text style="stroke:none;fill:black;font-family:-apple-system,&quot;SF Pro Display&quot;,&quot;SF Pro Text&quot;,Helvetica,sans-serif;font-weight:bold;" transform="matrix(1 0 0 1 263 322)">Weight/Scale Variations</text>
  <text style="stroke:none;fill:black;font-family:-apple-system,&quot;SF Pro Display&quot;,&quot;SF Pro Text&quot;,Helvetica,sans-serif;text-anchor:middle;" transform="matrix(1 0 0 1 559.711 322)">Ultralight</text>
  <text style="stroke:none;fill:black;font-family:-apple-system,&quot;SF Pro Display&quot;,&quot;SF Pro Text&quot;,Helvetica,sans-serif;text-anchor:middle;" transform="matrix(1 0 0 1 856.422 322)">Thin</text>
  <text style="stroke:none;fill:black;font-family:-apple-system,&quot;SF Pro Display&quot;,&quot;SF Pro Text&quot;,Helvetica,sans-serif;text-anchor:middle;" transform="matrix(1 0 0 1 1153.13 322)">Light</text>
  <text style="stroke:none;fill:black;font-family:-apple-system,&quot;SF Pro Display&quot;,&quot;SF Pro Text&quot;,Helvetica,sans-serif;text-anchor:middle;" transform="matrix(1 0 0 1 1449.84 322)">Regular</text>
  <text style="stroke:none;fill:black;font-family:-apple-system,&quot;SF Pro Display&quot;,&quot;SF Pro Text&quot;,Helvetica,sans-serif;text-anchor:middle;" transform="matrix(1 0 0 1 1746.56 322)">Medium</text>
  <text style="stroke:none;fill:black;font-family:-apple-system,&quot;SF Pro Display&quot;,&quot;SF Pro Text&quot;,Helvetica,sans-serif;text-anchor:middle;" transform="matrix(1 0 0 1 2043.27 322)">Semibold</text>
  <text style="stroke:none;fill:black;font-family:-apple-system,&quot;SF Pro Display&quot;,&quot;SF Pro Text&quot;,Helvetica,sans-serif;text-anchor:middle;" transform="matrix(1 0 0 1 2339.98 322)">Bold</text>
  <text style="stroke:none;fill:black;font-family:-apple-system,&quot;SF Pro Display&quot;,&quot;SF Pro Text&quot;,Helvetica,sans-serif;text-anchor:middle;" transform="matrix(1 0 0 1 2636.69 322)">Heavy</text>
  <text style="stroke:none;fill:black;font-family:-apple-system,&quot;SF Pro Display&quot;,&quot;SF Pro Text&quot;,Helvetica,sans-serif;text-anchor:middle;" transform="matrix(1 0 0 1 2933.4 322)">Black</text>
  <line id="" style="fill:none;stroke:black;opacity:1;stroke-width:0.5;" x1="263" x2="3036" y1="1903" y2="1903"/>
  <g id="" transform="matrix(1 0 0 1 263 1933)">
   <path d="M 9.24805 0.830078 C 13.5547 0.830078 17.1387 -2.74414 17.1387 -7.05078 C 17.1387 -11.3574 13.5449 -14.9316 9.23828 -14.9316 C 4.94141 -14.9316 1.36719 -11.3574 1.36719 -7.05078 C 1.36719 -2.74414 4.95117 0.830078 9.24805 0.830078 Z M 9.24805 -0.654297 C 5.70312 -0.654297 2.87109 -3.49609 2.87109 -7.05078 C 2.87109 -10.6055 5.69336 -13.4473 9.23828 -13.4473 C 12.793 -13.4473 15.6348 -10.6055 15.6445 -7.05078 C 15.6543 -3.49609 12.8027 -0.654297 9.24805 -0.654297 Z M 9.22852 -3.62305 C 9.69727 -3.62305 9.9707 -3.93555 9.9707 -4.45312 L 9.9707 -6.31836 L 12.002 -6.31836 C 12.5 -6.31836 12.832 -6.57227 12.832 -7.04102 C 12.832 -7.51953 12.5195 -7.7832 12.002 -7.7832 L 9.9707 -7.7832 L 9.9707 -9.81445 C 9.9707 -10.332 9.69727 -10.6543 9.22852 -10.6543 C 8.75977 -10.6543 8.50586 -10.3125 8.50586 -9.81445 L 8.50586 -7.7832 L 6.49414 -7.7832 C 5.97656 -7.7832 5.64453 -7.51953 5.64453 -7.04102 C 5.64453 -6.57227 5.99609 -6.31836 6.49414 -6.31836 L 8.50586 -6.31836 L 8.50586 -4.45312 C 8.50586 -3.95508 8.75977 -3.62305 9.22852 -3.62305 Z"/>
  </g>
  <g id="" transform="matrix(1 0 0 1 281.506 1933)">
   <path d="M 11.709 2.91016 C 17.1582 2.91016 21.6699 -1.61133 21.6699 -7.05078 C 21.6699 -12.5 17.1484 -17.0117 11.6992 -17.0117 C 6.25977 -17.0117 1.74805 -12.5 1.74805 -7.05078 C 1.74805 -1.61133 6.26953 2.91016 11.709 2.91016 Z M 11.709 1.25 C 7.09961 1.25 3.41797 -2.44141 3.41797 -7.05078 C 3.41797 -11.6602 7.08984 -15.3516 11.6992 -15.3516 C 16.3086 -15.3516 20 -11.6602 20.0098 -7.05078 C 20.0195 -2.44141 16.3184 1.25 11.709 1.25 Z M 11.6797 -2.66602 C 12.207 -2.66602 12.5098 -3.01758 12.5098 -3.59375 L 12.5098 -6.23047 L 15.3223 -6.23047 C 15.8691 -6.23047 16.25 -6.51367 16.25 -7.03125 C 16.25 -7.55859 15.8887 -7.86133 15.3223 -7.86133 L 12.5098 -7.86133 L 12.5098 -10.6836 C 12.5098 -11.25 12.207 -11.6113 11.6797 -11.6113 C 11.1621 -11.6113 10.8789 -11.2305 10.8789 -10.6836 L 10.8789 -7.86133 L 8.07617 -7.86133 C 7.50977 -7.86133 7.13867 -7.55859 7.13867 -7.03125 C 7.13867 -6.51367 7.5293 -6.23047 8.07617 -6.23047 L 10.8789 -6.23047 L 10.8789 -3.59375 C 10.8789 -3.03711 11.1621 -2.66602 11.6797 -2.66602 Z"/>
  </g>
  <g id="" transform="matrix(1 0 0 1 304.924 1933)">
   <path d="M 14.9707 5.66406 C 21.9336 5.66406 27.6953 -0.0976562 27.6953 -7.05078 C 27.6953 -14.0137 21.9238 -19.7754 14.9609 -19.7754 C 8.00781 -19.7754 2.25586 -14.0137 2.25586 -7.05078 C 2.25586 -0.0976562 8.01758 5.66406 14.9707 5.66406 Z M 14.9707 3.84766 C 8.93555 3.84766 4.08203 -1.01562 4.08203 -7.05078 C 4.08203 -13.0957 8.92578 -17.9492 14.9609 -17.9492 C 21.0059 -17.9492 25.8594 -13.0957 25.8691 -7.05078 C 25.8789 -1.01562 21.0156 3.84766 14.9707 3.84766 Z M 14.9414 -1.38672 C 15.5176 -1.38672 15.8594 -1.77734 15.8594 -2.38281 L 15.8594 -6.13281 L 19.7754 -6.13281 C 20.3711 -6.13281 20.7812 -6.46484 20.7812 -7.02148 C 20.7812 -7.59766 20.3906 -7.93945 19.7754 -7.93945 L 15.8594 -7.93945 L 15.8594 -11.8652 C 15.8594 -12.4805 15.5176 -12.8711 14.9414 -12.8711 C 14.375 -12.8711 14.0527 -12.4609 14.0527 -11.8652 L 14.0527 -7.93945 L 10.1465 -7.93945 C 9.53125 -7.93945 9.13086 -7.59766 9.13086 -7.02148 C 9.13086 -6.46484 9.55078 -6.13281 10.1465 -6.13281 L 14.0527 -6.13281 L 14.0527 -2.38281 C 14.0527 -1.79688 14.375 -1.38672 14.9414 -1.38672 Z"/>
  </g>
  <text style="stroke:none;fill:black;font-family:-apple-system,&quot;SF Pro Display&quot;,&quot;SF Pro Text&quot;,Helvetica,sans-serif;font-weight:bold;" transform="matrix(1 0 0 1 263 1953)">Design Variations</text>
  <text style="stroke:none;fill:black;font-family:-apple-system,&quot;SF Pro Display&quot;,&quot;SF Pro Text&quot;,Helvetica,sans-serif;" transform="matrix(1 0 0 1 263 1971)">Symbols are supported in up to nine weights and three scales.</text>
  <text style="stroke:none;fill:black;font-family:-apple-system,&quot;SF Pro Display&quot;,&quot;SF Pro Text&quot;,Helvetica,sans-serif;" transform="matrix(1 0 0 1 263 1989)">For optimal layout with text and other symbols, vertically align</text>
  <text style="stroke:none;fill:black;font-family:-apple-system,&quot;SF Pro Display&quot;,&quot;SF Pro Text&quot;,Helvetica,sans-serif;" transform="matrix(1 0 0 1 263 2007)">symbols with the adjacent text.</text>
  <line id="" style="fill:none;stroke:#00AEEF;stroke-width:0.5;opacity:1.0;" x1="776" x2="776" y1="1919" y2="1933"/>
  <g id="" transform="matrix(1 0 0 1 776 1933)">
   <path d="M 3.31055 0.126953 C 3.82812 0.126953 4.08203 -0.0683594 4.26758 -0.605469 L 5.52734 -4.0625 L 11.2891 -4.0625 L 12.5488 -0.605469 C 12.7344 -0.0683594 12.9883 0.126953 13.4961 0.126953 C 14.0137 0.126953 14.3457 -0.185547 14.3457 -0.673828 C 14.3457 -0.839844 14.3164 -0.986328 14.2383 -1.20117 L 9.6582 -13.3887 C 9.43359 -13.9941 9.0332 -14.2871 8.4082 -14.2871 C 7.80273 -14.2871 7.39258 -13.9941 7.17773 -13.3984 L 2.59766 -1.19141 C 2.51953 -0.976562 2.49023 -0.830078 2.49023 -0.664062 C 2.49023 -0.175781 2.80273 0.126953 3.31055 0.126953 Z M 6.00586 -5.53711 L 8.37891 -12.1094 L 8.42773 -12.1094 L 10.8008 -5.53711 Z"/>
  </g>
  <line id="" style="fill:none;stroke:#00AEEF;stroke-width:0.5;opacity:1.0;" x1="792.836" x2="792.836" y1="1919" y2="1933"/>
  <text style="stroke:none;fill:black;font-family:-apple-system,&quot;SF Pro Display&quot;,&quot;SF Pro Text&quot;,Helvetica,sans-serif;font-weight:bold;" transform="matrix(1 0 0 1 776 1953)">Margins</text>
  <text style="stroke:none;fill:black;font-family:-apple-system,&quot;SF Pro Display&quot;,&quot;SF Pro Text&quot;,Helvetica,sans-serif;" transform="matrix(1 0 0 1 776 1971)">Leading and trailing margins on the left and right side of each symbol</text>
  <text style="stroke:none;fill:black;font-family:-apple-system,&quot;SF Pro Display&quot;,&quot;SF Pro Text&quot;,Helvetica,sans-serif;" transform="matrix(1 0 0 1 776 1989)">can be adjusted by modifying the x-location of the margin guidelines.</text>
  <text style="stroke:none;fill:black;font-family:-apple-system,&quot;SF Pro Display&quot;,&quot;SF Pro Text&quot;,Helvetica,sans-serif;" transform="matrix(1 0 0 1 776 2007)">Modifications are automatically applied proportionally to all</text>
  <text style="stroke:none;fill:black;font-family:-apple-system,&quot;SF Pro Display&quot;,&quot;SF Pro Text&quot;,Helvetica,sans-serif;" transform="matrix(1 0 0 1 776 2025)">scales and weights.</text>
  <g id="" transform="matrix(1 0 0 1 1289 1933)">
   <path d="M 2.8418 1.86523 L 4.54102 3.57422 C 5.40039 4.44336 6.38672 4.38477 7.31445 3.35938 L 17.4902 -7.85156 C 17.7539 -7.76367 18.0273 -7.7832 18.3398 -7.8418 L 19.4043 -8.03711 L 20.0684 -7.36328 L 20.0293 -6.80664 C 19.9902 -6.30859 20.1172 -5.92773 20.6055 -5.44922 L 21.3672 -4.70703 C 21.8457 -4.22852 22.4609 -4.19922 22.9297 -4.66797 L 25.8398 -7.58789 C 26.3086 -8.05664 26.2891 -8.65234 25.8105 -9.13086 L 25.0391 -9.89258 C 24.5605 -10.3711 24.1895 -10.5273 23.7109 -10.4883 L 23.1348 -10.4395 L 22.4902 -11.0742 L 22.7344 -12.1973 C 22.8613 -12.7637 22.7051 -13.2031 22.1191 -13.7891 L 19.9219 -15.9766 C 16.582 -19.2969 12.1484 -19.2188 9.25781 -16.3281 C 8.83789 -15.918 8.80859 -15.3418 9.04297 -14.9512 C 9.27734 -14.5898 9.73633 -14.3555 10.3809 -14.5215 C 11.8457 -14.8633 13.3691 -14.9219 14.7949 -13.9844 L 14.209 -12.5293 C 14.0137 -12.0508 13.9844 -11.6504 14.1113 -11.2891 L 3.04688 -0.898438 C 2.06055 0.0195312 1.98242 0.996094 2.8418 1.86523 Z M 10.752 -15.957 C 13.1836 -17.7344 16.4746 -17.4316 18.7012 -15.2051 L 21.1328 -12.793 C 21.3672 -12.5586 21.4062 -12.373 21.3379 -12.0312 L 21.0156 -10.5469 L 22.5195 -9.0625 L 23.5059 -9.12109 C 23.7598 -9.13086 23.8379 -9.11133 24.0332 -8.91602 L 24.6094 -8.33984 L 22.168 -5.89844 L 21.5918 -6.47461 C 21.3965 -6.66992 21.3672 -6.74805 21.377 -7.01172 L 21.4453 -7.98828 L 19.9512 -9.47266 L 18.4277 -9.21875 C 18.1055 -9.15039 17.959 -9.17969 17.7148 -9.41406 L 15.7129 -11.416 C 15.459 -11.6504 15.4297 -11.8164 15.5859 -12.1875 L 16.4648 -14.2773 C 14.9023 -15.7324 12.8711 -16.3574 10.8398 -15.7617 C 10.6836 -15.7227 10.625 -15.8496 10.752 -15.957 Z M 5.27344 2.30469 L 4.10156 1.14258 C 3.63281 0.683594 3.74023 0.341797 4.14062 -0.0195312 L 14.9512 -10.1953 L 16.416 -8.71094 L 6.42578 2.27539 C 6.07422 2.67578 5.74219 2.77344 5.27344 2.30469 Z"/>
  </g>
  <text style="stroke:none;fill:black;font-family:-apple-system,&quot;SF Pro Display&quot;,&quot;SF Pro Text&quot;,Helvetica,sans-serif;font-weight:bold;" transform="matrix(1 0 0 1 1289 1953)">Exporting</text>
  <text style="stroke:none;fill:black;font-family:-apple-system,&quot;SF Pro Display&quot;,&quot;SF Pro Text&quot;,Helvetica,sans-serif;" transform="matrix(1 0 0 1 1289 1971)">Symbols should be outlined when exporting to ensure the</text>
  <text style="stroke:none;fill:black;font-family:-apple-system,&quot;SF Pro Display&quot;,&quot;SF Pro Text&quot;,Helvetica,sans-serif;" transform="matrix(1 0 0 1 1289 1989)">design is preserved when submitting to Xcode.</text>
  <text id="template-version" style="stroke:none;fill:black;font-family:-apple-system,&quot;SF Pro Display&quot;,&quot;SF Pro Text&quot;,Helvetica,sans-serif;text-anchor:end;" transform="matrix(1 0 0 1 3036 1933)">Template v.2.0</text>
  <text style="stroke:none;fill:black;font-family:-apple-system,&quot;SF Pro Display&quot;,&quot;SF Pro Text&quot;,Helvetica,sans-serif;text-anchor:end;" transform="matrix(1 0 0 1 3036 1951)">Requires Xcode 12 or greater</text>
  <text style="stroke:none;fill:black;font-family:-apple-system,&quot;SF Pro Display&quot;,&quot;SF Pro Text&quot;,Helvetica,sans-serif;text-anchor:end;" transform="matrix(1 0 0 1 3036 1969)">Generated from waveform.circle</text>
  <text style="stroke:none;fill:black;font-family:-apple-system,&quot;SF Pro Display&quot;,&quot;SF Pro Text&quot;,Helvetica,sans-serif;text-anchor:end;" transform="matrix(1 0 0 1 3036 1987)">Typeset at 100 points</text>
  <text style="stroke:none;fill:black;font-family:-apple-system,&quot;SF Pro Display&quot;,&quot;SF Pro Text&quot;,Helvetica,sans-serif;" transform="matrix(1 0 0 1 263 726)">Small</text>
  <text style="stroke:none;fill:black;font-family:-apple-system,&quot;SF Pro Display&quot;,&quot;SF Pro Text&quot;,Helvetica,sans-serif;" transform="matrix(1 0 0 1 263 1156)">Medium</text>
  <text style="stroke:none;fill:black;font-family:-apple-system,&quot;SF Pro Display&quot;,&quot;SF Pro Text&quot;,Helvetica,sans-serif;" transform="matrix(1 0 0 1 263 1586)">Large</text>
 </g>
 <g id="Guides">
  <g id="H-reference" style="fill:#27AAE1;stroke:none;" transform="matrix(1 0 0 1 339 696)">
   <path d="M 0.976562 0 L 3.66211 0 L 12.9883 -24.4629 L 45.7031 -24.4629 L 55.0781 0 L 57.7148 0 L 30.6152 -70.459 L 28.125 -70.459 Z M 29.2969 -67.1387 L 29.3945 -67.1387 L 44.873 -26.709 L 13.8672 -26.709 Z"/>
  </g>
  <line id="Baseline-S" style="fill:none;stroke:#27AAE1;opacity:1;stroke-width:0.5;" x1="263" x2="3036" y1="696" y2="696"/>
  <line id="Capline-S" style="fill:none;stroke:#27AAE1;opacity:1;stroke-width:0.5;" x1="263" x2="3036" y1="625.541" y2="625.541"/>
  <g id="H-reference" style="fill:#27AAE1;stroke:none;" transform="matrix(1 0 0 1 339 1126)">
   <path d="M 0.976562 0 L 3.66211 0 L 12.9883 -24.4629 L 45.7031 -24.4629 L 55.0781 0 L 57.7148 0 L 30.6152 -70.459 L 28.125 -70.459 Z M 29.2969 -67.1387 L 29.3945 -67.1387 L 44.873 -26.709 L 13.8672 -26.709 Z"/>
  </g>
  <line id="Baseline-M" style="fill:none;stroke:#27AAE1;opacity:1;stroke-width:0.5;" x1="263" x2="3036" y1="1126" y2="1126"/>
  <line id="Capline-M" style="fill:none;stroke:#27AAE1;opacity:1;stroke-width:0.5;" x1="263" x2="3036" y1="1055.54" y2="1055.54"/>
  <g id="H-reference" style="fill:#27AAE1;stroke:none;" transform="matrix(1 0 0 1 339 1556)">
   <path d="M 0.976562 0 L 3.66211 0 L 12.9883 -24.4629 L 45.7031 -24.4629 L 55.0781 0 L 57.7148 0 L 30.6152 -70.459 L 28.125 -70.459 Z M 29.2969 -67.1387 L 29.3945 -67.1387 L 44.873 -26.709 L 13.8672 -26.709 Z"/>
  </g>
  <line id="Baseline-L" style="fill:none;stroke:#27AAE1;opacity:1;stroke-width:0.5;" x1="263" x2="3036" y1="1556" y2="1556"/>
  <line id="Capline-L" style="fill:none;stroke:#27AAE1;opacity:1;stroke-width:0.5;" x1="263" x2="3036" y1="1485.54" y2="1485.54"/>
  <line id="left-margin" style="fill:none;stroke:#00AEEF;stroke-width:0.5;opacity:1.0;" x1="1391.3" x2="1391.3" y1="1030.79" y2="1150.12"/>
  <line id="right-margin" style="fill:none;stroke:#00AEEF;stroke-width:0.5;opacity:1.0;" x1="1508.39" x2="1508.39" y1="1030.79" y2="1150.12"/>
 </g>
 <g id="Symbols">
  <g id="Black-L" transform="matrix(1 0 0 1 2854.05 1556)">
   <path d="M 79.3457 32.8613 C 116.748 32.8613 147.412 2.19727 147.412 -35.2051 C 147.412 -72.6074 116.748 -103.271 79.2969 -103.271 C 41.8945 -103.271 11.2793 -72.6074 11.2793 -35.2051 C 11.2793 2.19727 41.9434 32.8613 79.3457 32.8613 Z M 79.3457 12.4023 C 52.9785 12.4023 31.7383 -8.83789 31.7383 -35.2051 C 31.7383 -61.5723 52.9297 -82.8125 79.2969 -82.8125 C 105.664 -82.8125 126.953 -61.5723 126.953 -35.2051 C 127.002 -8.83789 105.713 12.4023 79.3457 12.4023 Z M 73.1934 0.439453 C 75.6836 0.439453 77.6367 -1.51367 77.6367 -4.00391 L 77.6367 -66.4062 C 77.6367 -68.9453 75.6836 -70.8984 73.1934 -70.8984 C 70.7031 -70.8984 68.75 -68.8965 68.75 -66.4062 L 68.75 -4.00391 C 68.75 -1.51367 70.6543 0.439453 73.1934 0.439453 Z M 97.5098 -6.39648 C 100 -6.39648 101.953 -8.30078 101.953 -10.791 L 101.953 -59.668 C 101.953 -62.1094 100 -64.0625 97.5098 -64.0625 C 94.9707 -64.0625 93.0664 -62.1094 93.0664 -59.668 L 93.0664 -10.791 C 93.0664 -8.30078 95.0684 -6.39648 97.5098 -6.39648 Z M 60.9863 -10.2539 C 63.5254 -10.2539 65.5273 -12.2559 65.5273 -14.6484 L 65.5273 -55.8105 C 65.5273 -58.2031 63.5254 -60.2051 60.9863 -60.2051 C 58.4961 -60.2051 56.543 -58.2031 56.543 -55.8105 L 56.543 -14.6484 C 56.543 -12.1582 58.5449 -10.2539 60.9863 -10.2539 Z M 85.3516 -14.1602 C 87.8418 -14.1602 89.7949 -16.1133 89.7949 -18.6035 L 89.7949 -51.8555 C 89.7949 -54.3945 87.793 -56.2988 85.3516 -56.2988 C 82.9102 -56.2988 80.9082 -54.2969 80.9082 -51.8555 L 80.9082 -18.6035 C 80.9082 -16.1133 82.9102 -14.1602 85.3516 -14.1602 Z M 109.668 -21.8262 C 112.158 -21.8262 114.062 -23.8281 114.062 -26.3184 L 114.062 -44.1406 C 114.062 -46.6797 112.109 -48.584 109.668 -48.584 C 107.129 -48.584 105.225 -46.6309 105.225 -44.1406 L 105.225 -26.3184 C 105.225 -23.7793 107.129 -21.8262 109.668 -21.8262 Z M 48.7793 -24.5605 C 51.3184 -24.5605 53.3203 -26.5137 53.3203 -29.0039 L 53.3203 -41.4551 C 53.3203 -43.8965 51.3184 -45.8984 48.7793 -45.8984 C 46.3379 -45.8984 44.3848 -43.8965 44.3848 -41.4551 L 44.3848 -29.0039 C 44.3848 -26.5137 46.3379 -24.5605 48.7793 -24.5605 Z"/>
  </g>
  <g id="Heavy-L" transform="matrix(1 0 0 1 2558.39 1556)">
   <path d="M 78.2715 31.7871 C 115.088 31.7871 145.312 1.5625 145.312 -35.2051 C 145.312 -72.0215 115.039 -102.246 78.2715 -102.246 C 41.4551 -102.246 11.2793 -72.0215 11.2793 -35.2051 C 11.2793 1.5625 41.5039 31.7871 78.2715 31.7871 Z M 78.2715 14.0137 C 51.0254 14.0137 29.0527 -7.95898 29.0527 -35.2051 C 29.0527 -62.5 50.9766 -84.4727 78.2715 -84.4727 C 105.518 -84.4727 127.49 -62.5 127.539 -35.2051 C 127.539 -7.95898 105.566 14.0137 78.2715 14.0137 Z M 72.0703 1.75781 C 74.4141 1.75781 76.2695 -0.0976562 76.2695 -2.44141 L 76.2695 -67.9688 C 76.2695 -70.3613 74.4141 -72.2168 72.0703 -72.2168 C 69.7266 -72.2168 67.9199 -70.3613 67.9199 -67.9688 L 67.9199 -2.44141 C 67.9199 -0.0976562 69.6777 1.75781 72.0703 1.75781 Z M 96.6797 -5.71289 C 99.0234 -5.71289 100.83 -7.56836 100.83 -9.86328 L 100.83 -60.5957 C 100.83 -62.9395 99.0234 -64.7461 96.6797 -64.7461 C 94.2871 -64.7461 92.4805 -62.9395 92.4805 -60.5957 L 92.4805 -9.86328 C 92.4805 -7.56836 94.3359 -5.71289 96.6797 -5.71289 Z M 59.7168 -10.4492 C 62.1094 -10.4492 63.9648 -12.3047 63.9648 -14.5996 L 63.9648 -55.9082 C 63.9648 -58.1543 62.1094 -60.0098 59.7168 -60.0098 C 57.373 -60.0098 55.5664 -58.1543 55.5664 -55.9082 L 55.5664 -14.5996 C 55.5664 -12.2559 57.4219 -10.4492 59.7168 -10.4492 Z M 84.375 -14.502 C 86.7188 -14.502 88.5254 -16.3574 88.5254 -18.7012 L 88.5254 -51.8066 C 88.5254 -54.1504 86.6699 -55.957 84.375 -55.957 C 82.0312 -55.957 80.1758 -54.1016 80.1758 -51.8066 L 80.1758 -18.7012 C 80.1758 -16.3574 82.0312 -14.502 84.375 -14.502 Z M 108.984 -21.9727 C 111.328 -21.9727 113.135 -23.8281 113.135 -26.1719 L 113.135 -44.2871 C 113.135 -46.7285 111.279 -48.4863 108.984 -48.4863 C 106.592 -48.4863 104.785 -46.6309 104.785 -44.2871 L 104.785 -26.1719 C 104.785 -23.7793 106.592 -21.9727 108.984 -21.9727 Z M 47.3633 -24.9023 C 49.7559 -24.9023 51.6113 -26.7578 51.6113 -29.0527 L 51.6113 -41.4062 C 51.6113 -43.7012 49.7559 -45.5566 47.3633 -45.5566 C 45.0684 -45.5566 43.2129 -43.7012 43.2129 -41.4062 L 43.2129 -29.0527 C 43.2129 -26.7578 45.0684 -24.9023 47.3633 -24.9023 Z"/>
  </g>
  <g id="Bold-L" transform="matrix(1 0 0 1 2262.88 1556)">
   <path d="M 77.0996 30.5664 C 113.232 30.5664 142.92 0.878906 142.92 -35.2539 C 142.92 -71.3379 113.184 -101.074 77.0508 -101.074 C 40.9668 -101.074 11.2793 -71.3379 11.2793 -35.2539 C 11.2793 0.878906 41.0156 30.5664 77.0996 30.5664 Z M 77.0996 15.8203 C 48.8281 15.8203 26.0742 -6.98242 26.0742 -35.2539 C 26.0742 -63.5254 48.7793 -86.2793 77.0508 -86.2793 C 105.371 -86.2793 128.125 -63.5254 128.174 -35.2539 C 128.174 -6.98242 105.371 15.8203 77.0996 15.8203 Z M 70.8008 3.17383 C 72.9492 3.17383 74.707 1.46484 74.707 -0.732422 L 74.707 -69.7754 C 74.707 -71.9727 72.9492 -73.6816 70.8008 -73.6816 C 68.6035 -73.6816 66.9434 -71.9727 66.9434 -69.7754 L 66.9434 -0.732422 C 66.9434 1.51367 68.5547 3.17383 70.8008 3.17383 Z M 95.7031 -4.98047 C 97.9004 -4.98047 99.6094 -6.68945 99.6094 -8.83789 L 99.6094 -61.6699 C 99.6094 -63.8184 97.9004 -65.5273 95.7031 -65.5273 C 93.5059 -65.5273 91.8457 -63.8184 91.8457 -61.6699 L 91.8457 -8.83789 C 91.8457 -6.68945 93.5547 -4.98047 95.7031 -4.98047 Z M 58.3496 -10.6934 C 60.5469 -10.6934 62.2559 -12.4023 62.2559 -14.5508 L 62.2559 -56.0059 C 62.2559 -58.1055 60.5469 -59.8145 58.3496 -59.8145 C 56.1523 -59.8145 54.4434 -58.1055 54.4434 -56.0059 L 54.4434 -14.5508 C 54.4434 -12.3535 56.1523 -10.6934 58.3496 -10.6934 Z M 83.252 -14.8926 C 85.4492 -14.8926 87.1582 -16.6016 87.1582 -18.75 L 87.1582 -51.7578 C 87.1582 -53.9062 85.4492 -55.6152 83.252 -55.6152 C 81.1035 -55.6152 79.3945 -53.9062 79.3945 -51.7578 L 79.3945 -18.75 C 79.3945 -16.6016 81.1035 -14.8926 83.252 -14.8926 Z M 108.203 -22.1191 C 110.4 -22.1191 112.061 -23.7793 112.061 -26.0254 L 112.061 -44.4824 C 112.061 -46.7285 110.4 -48.3887 108.203 -48.3887 C 106.006 -48.3887 104.297 -46.6797 104.297 -44.4824 L 104.297 -26.0254 C 104.297 -23.8281 106.006 -22.1191 108.203 -22.1191 Z M 45.8008 -25.293 C 48.0469 -25.293 49.7559 -27.002 49.7559 -29.1504 L 49.7559 -41.3574 C 49.7559 -43.5059 48.0469 -45.2148 45.8008 -45.2148 C 43.6523 -45.2148 41.9434 -43.5059 41.9434 -41.3574 L 41.9434 -29.1504 C 41.9434 -27.002 43.6523 -25.293 45.8008 -25.293 Z"/>
  </g>
  <g id="Semibold-L" transform="matrix(1 0 0 1 1966.97 1556)">
   <path d="M 76.2695 29.7363 C 111.914 29.7363 141.309 0.390625 141.309 -35.2539 C 141.309 -70.8984 111.865 -100.244 76.2695 -100.244 C 40.625 -100.244 11.2793 -70.8984 11.2793 -35.2539 C 11.2793 0.390625 40.6738 29.7363 76.2695 29.7363 Z M 76.2695 17.041 C 47.3145 17.041 24.0234 -6.25 24.0234 -35.2539 C 24.0234 -64.209 47.2656 -87.5488 76.2695 -87.5488 C 105.225 -87.5488 128.564 -64.209 128.613 -35.2539 C 128.662 -6.25 105.273 17.041 76.2695 17.041 Z M 69.9219 4.19922 C 71.9727 4.19922 73.584 2.58789 73.584 0.488281 L 73.584 -70.9961 C 73.584 -73.0957 71.9727 -74.6582 69.9219 -74.6582 C 67.8711 -74.6582 66.2598 -73.0469 66.2598 -70.9961 L 66.2598 0.488281 C 66.2598 2.58789 67.8223 4.19922 69.9219 4.19922 Z M 95.0684 -4.49219 C 97.168 -4.49219 98.7305 -6.10352 98.7305 -8.1543 L 98.7305 -62.4023 C 98.7305 -64.4531 97.168 -66.0156 95.0684 -66.0156 C 93.0176 -66.0156 91.4062 -64.4531 91.4062 -62.4023 L 91.4062 -8.1543 C 91.4062 -6.10352 93.0176 -4.49219 95.0684 -4.49219 Z M 57.373 -10.8398 C 59.4238 -10.8398 61.0352 -12.4512 61.0352 -14.502 L 61.0352 -56.0547 C 61.0352 -58.1055 59.4238 -59.668 57.373 -59.668 C 55.2734 -59.668 53.6621 -58.1055 53.6621 -56.0547 L 53.6621 -14.502 C 53.6621 -12.4023 55.2734 -10.8398 57.373 -10.8398 Z M 82.5195 -15.1367 C 84.6191 -15.1367 86.1816 -16.748 86.1816 -18.7988 L 86.1816 -51.709 C 86.1816 -53.7598 84.5703 -55.3711 82.5195 -55.3711 C 80.4688 -55.3711 78.8574 -53.7598 78.8574 -51.709 L 78.8574 -18.7988 C 78.8574 -16.748 80.4688 -15.1367 82.5195 -15.1367 Z M 107.666 -22.2168 C 109.766 -22.2168 111.328 -23.7793 111.328 -25.8789 L 111.328 -44.6289 C 111.328 -46.7285 109.766 -48.291 107.666 -48.291 C 105.566 -48.291 104.004 -46.6797 104.004 -44.6289 L 104.004 -25.8789 C 104.004 -23.8281 105.566 -22.2168 107.666 -22.2168 Z M 44.7266 -25.5371 C 46.8262 -25.5371 48.4375 -27.1484 48.4375 -29.1992 L 48.4375 -41.3086 C 48.4375 -43.3594 46.8262 -44.9707 44.7266 -44.9707 C 42.6758 -44.9707 41.0645 -43.3594 41.0645 -41.3086 L 41.0645 -29.1992 C 41.0645 -27.1484 42.6758 -25.5371 44.7266 -25.5371 Z"/>
  </g>
  <g id="Medium-L" transform="matrix(1 0 0 1 1670.87 1556)">
   <path d="M 75.6836 29.1504 C 110.938 29.1504 140.088 0 140.088 -35.2539 C 140.088 -70.5078 110.889 -99.6582 75.6348 -99.6582 C 40.3809 -99.6582 11.2793 -70.5078 11.2793 -35.2539 C 11.2793 0 40.3809 29.1504 75.6836 29.1504 Z M 75.6836 18.0176 C 46.1426 18.0176 22.4609 -5.76172 22.4609 -35.2539 C 22.4609 -64.7461 46.1426 -88.5254 75.6348 -88.5254 C 105.127 -88.5254 128.906 -64.7461 128.906 -35.2539 C 128.955 -5.76172 105.176 18.0176 75.6836 18.0176 Z M 69.2871 4.93164 C 71.2402 4.93164 72.8027 3.41797 72.8027 1.36719 L 72.8027 -71.9238 C 72.8027 -73.9258 71.2402 -75.4395 69.2871 -75.4395 C 67.2852 -75.4395 65.7715 -73.9258 65.7715 -71.9238 L 65.7715 1.36719 C 65.7715 3.41797 67.2363 4.93164 69.2871 4.93164 Z M 94.5801 -4.10156 C 96.582 -4.10156 98.0957 -5.61523 98.0957 -7.56836 L 98.0957 -62.9395 C 98.0957 -64.8926 96.582 -66.4551 94.5801 -66.4551 C 92.5781 -66.4551 91.0645 -64.8926 91.0645 -62.9395 L 91.0645 -7.56836 C 91.0645 -5.61523 92.627 -4.10156 94.5801 -4.10156 Z M 56.6406 -10.9375 C 58.5938 -10.9375 60.1562 -12.5 60.1562 -14.502 L 60.1562 -56.1035 C 60.1562 -58.0566 58.5938 -59.5703 56.6406 -59.5703 C 54.6387 -59.5703 53.0762 -58.0566 53.0762 -56.1035 L 53.0762 -14.502 C 53.0762 -12.4512 54.6387 -10.9375 56.6406 -10.9375 Z M 81.9336 -15.3809 C 83.9355 -15.3809 85.4492 -16.8945 85.4492 -18.8477 L 85.4492 -51.6602 C 85.4492 -53.6621 83.9355 -55.1758 81.9336 -55.1758 C 79.9805 -55.1758 78.418 -53.6621 78.418 -51.6602 L 78.418 -18.8477 C 78.418 -16.8945 79.9805 -15.3809 81.9336 -15.3809 Z M 107.275 -22.3145 C 109.277 -22.3145 110.791 -23.7793 110.791 -25.7812 L 110.791 -44.7266 C 110.791 -46.7773 109.277 -48.2422 107.275 -48.2422 C 105.273 -48.2422 103.76 -46.6797 103.76 -44.7266 L 103.76 -25.7812 C 103.76 -23.8281 105.273 -22.3145 107.275 -22.3145 Z M 43.8965 -25.7812 C 45.9473 -25.7812 47.4609 -27.2949 47.4609 -29.248 L 47.4609 -41.2598 C 47.4609 -43.2617 45.9473 -44.7754 43.8965 -44.7754 C 41.9434 -44.7754 40.4297 -43.2617 40.4297 -41.2598 L 40.4297 -29.248 C 40.4297 -27.2949 41.9434 -25.7812 43.8965 -25.7812 Z"/>
  </g>
  <g id="Regular-L" transform="matrix(1 0 0 1 1374.97 1556)">
   <path d="M 74.8535 28.3203 C 109.668 28.3203 138.477 -0.488281 138.477 -35.2539 C 138.477 -70.0684 109.619 -98.877 74.8047 -98.877 C 40.0391 -98.877 11.2793 -70.0684 11.2793 -35.2539 C 11.2793 -0.488281 40.0879 28.3203 74.8535 28.3203 Z M 74.8535 19.2383 C 44.6777 19.2383 20.4102 -5.07812 20.4102 -35.2539 C 20.4102 -65.4785 44.6289 -89.7461 74.8047 -89.7461 C 105.029 -89.7461 129.297 -65.4785 129.346 -35.2539 C 129.395 -5.07812 105.078 19.2383 74.8535 19.2383 Z M 68.4082 5.9082 C 70.2637 5.9082 71.7285 4.49219 71.7285 2.58789 L 71.7285 -73.0957 C 71.7285 -75 70.2637 -76.4648 68.4082 -76.4648 C 66.5039 -76.4648 65.0879 -75 65.0879 -73.0957 L 65.0879 2.58789 C 65.0879 4.54102 66.4551 5.9082 68.4082 5.9082 Z M 93.9453 -3.61328 C 95.8496 -3.61328 97.2656 -5.0293 97.2656 -6.88477 L 97.2656 -63.6719 C 97.2656 -65.5273 95.8496 -66.9434 93.9453 -66.9434 C 92.0898 -66.9434 90.625 -65.5273 90.625 -63.6719 L 90.625 -6.88477 C 90.625 -5.0293 92.0898 -3.61328 93.9453 -3.61328 Z M 55.6641 -11.084 C 57.5195 -11.084 58.9844 -12.5488 58.9844 -14.4531 L 58.9844 -56.1523 C 58.9844 -58.0078 57.5195 -59.4727 55.6641 -59.4727 C 53.7598 -59.4727 52.3438 -58.0078 52.3438 -56.1523 L 52.3438 -14.4531 C 52.3438 -12.5488 53.7598 -11.084 55.6641 -11.084 Z M 81.1523 -15.625 C 83.0566 -15.625 84.5215 -17.0898 84.5215 -18.9453 L 84.5215 -51.6602 C 84.5215 -53.4668 83.0566 -54.9316 81.1523 -54.9316 C 79.2969 -54.9316 77.8809 -53.4668 77.8809 -51.6602 L 77.8809 -18.9453 C 77.8809 -17.0898 79.2969 -15.625 81.1523 -15.625 Z M 106.738 -22.4121 C 108.643 -22.4121 110.059 -23.7793 110.059 -25.6836 L 110.059 -44.873 C 110.059 -46.7773 108.643 -48.1445 106.738 -48.1445 C 104.834 -48.1445 103.418 -46.7285 103.418 -44.873 L 103.418 -25.6836 C 103.418 -23.8281 104.834 -22.4121 106.738 -22.4121 Z M 42.8223 -26.0254 C 44.7266 -26.0254 46.1914 -27.4902 46.1914 -29.3457 L 46.1914 -41.2598 C 46.1914 -43.0664 44.7266 -44.5312 42.8223 -44.5312 C 40.9668 -44.5312 39.5508 -43.0664 39.5508 -41.2598 L 39.5508 -29.3457 C 39.5508 -27.4902 40.9668 -26.0254 42.8223 -26.0254 Z"/>
  </g>
  <g id="Light-L" transform="matrix(1 0 0 1 1079.18 1556)">
   <path d="M 73.9258 27.3926 C 108.301 27.3926 136.621 -0.927734 136.621 -35.2539 C 136.621 -69.6289 108.252 -97.9492 73.9258 -97.9492 C 39.5508 -97.9492 11.2793 -69.6289 11.2793 -35.2539 C 11.2793 -0.927734 39.5996 27.3926 73.9258 27.3926 Z M 73.9258 20.5078 C 43.1152 20.5078 18.2129 -4.44336 18.2129 -35.2539 C 18.2129 -66.1133 43.0664 -91.0156 73.9258 -91.0156 C 104.736 -91.0156 129.688 -66.1133 129.736 -35.2539 C 129.736 -4.44336 104.785 20.5078 73.9258 20.5078 Z M 67.5293 5.81055 C 69.043 5.81055 70.166 4.6875 70.166 3.125 L 70.166 -73.6816 C 70.166 -75.2441 69.043 -76.3672 67.5293 -76.3672 C 65.9668 -76.3672 64.7949 -75.2441 64.7949 -73.6816 L 64.7949 3.125 C 64.7949 4.6875 65.918 5.81055 67.5293 5.81055 Z M 93.0176 -4.63867 C 94.5312 -4.63867 95.7031 -5.76172 95.7031 -7.27539 L 95.7031 -63.2324 C 95.7031 -64.7461 94.5312 -65.918 93.0176 -65.918 C 91.4551 -65.918 90.332 -64.7461 90.332 -63.2324 L 90.332 -7.27539 C 90.332 -5.76172 91.4551 -4.63867 93.0176 -4.63867 Z M 54.7852 -11.5234 C 56.2988 -11.5234 57.4219 -12.6465 57.4219 -14.209 L 57.4219 -56.3477 C 57.4219 -57.8613 56.2988 -59.0332 54.7852 -59.0332 C 53.2227 -59.0332 52.0996 -57.8613 52.0996 -56.3477 L 52.0996 -14.209 C 52.0996 -12.6465 53.2227 -11.5234 54.7852 -11.5234 Z M 80.2734 -15.332 C 81.8359 -15.332 82.959 -16.4551 82.959 -18.0176 L 82.959 -52.5391 C 82.959 -54.0527 81.8359 -55.1758 80.2734 -55.1758 C 78.7598 -55.1758 77.5879 -54.0527 77.5879 -52.5391 L 77.5879 -18.0176 C 77.5879 -16.4551 78.7598 -15.332 80.2734 -15.332 Z M 105.811 -21.8262 C 107.373 -21.8262 108.496 -22.9492 108.496 -24.5117 L 108.496 -46.0449 C 108.496 -47.5586 107.373 -48.6816 105.811 -48.6816 C 104.248 -48.6816 103.125 -47.5586 103.125 -46.0449 L 103.125 -24.5117 C 103.125 -22.9492 104.248 -21.8262 105.811 -21.8262 Z M 41.9434 -26.0742 C 43.5059 -26.0742 44.6289 -27.2461 44.6289 -28.7598 L 44.6289 -41.748 C 44.6289 -43.3105 43.5059 -44.4336 41.9434 -44.4336 C 40.4297 -44.4336 39.3066 -43.3105 39.3066 -41.748 L 39.3066 -28.7598 C 39.3066 -27.2461 40.4297 -26.0742 41.9434 -26.0742 Z"/>
  </g>
  <g id="Thin-L" transform="matrix(1 0 0 1 783.693 1556)">
   <path d="M 72.7051 26.1719 C 106.494 26.1719 134.18 -1.51367 134.18 -35.2539 C 134.18 -69.043 106.494 -96.7285 72.7051 -96.7285 C 38.9648 -96.7285 11.2793 -69.043 11.2793 -35.2539 C 11.2793 -1.51367 38.9648 26.1719 72.7051 26.1719 Z M 72.7051 22.168 C 41.0156 22.168 15.2832 -3.56445 15.2832 -35.2539 C 15.2832 -66.9922 41.0156 -92.7246 72.7051 -92.7246 C 104.395 -92.7246 130.176 -66.9922 130.176 -35.2539 C 130.176 -3.56445 104.443 22.168 72.7051 22.168 Z M 66.2598 5.71289 C 67.3828 5.71289 68.1152 4.93164 68.1152 3.85742 L 68.1152 -74.4141 C 68.1152 -75.4883 67.3828 -76.2207 66.2598 -76.2207 C 65.1855 -76.2207 64.4531 -75.4883 64.4531 -74.4141 L 64.4531 3.85742 C 64.4531 4.93164 65.1855 5.71289 66.2598 5.71289 Z M 91.7969 -5.95703 C 92.8711 -5.95703 93.6035 -6.68945 93.6035 -7.8125 L 93.6035 -62.6953 C 93.6035 -63.7695 92.8711 -64.502 91.7969 -64.502 C 90.6738 -64.502 89.9414 -63.7695 89.9414 -62.6953 L 89.9414 -7.8125 C 89.9414 -6.68945 90.6738 -5.95703 91.7969 -5.95703 Z M 53.5645 -12.0605 C 54.6387 -12.0605 55.4199 -12.793 55.4199 -13.8672 L 55.4199 -56.5918 C 55.4199 -57.666 54.6387 -58.4473 53.5645 -58.4473 C 52.4902 -58.4473 51.7578 -57.666 51.7578 -56.5918 L 51.7578 -13.8672 C 51.7578 -12.793 52.4902 -12.0605 53.5645 -12.0605 Z M 79.0527 -14.9414 C 80.127 -14.9414 80.9082 -15.6738 80.9082 -16.7969 L 80.9082 -53.7109 C 80.9082 -54.7852 80.127 -55.5176 79.0527 -55.5176 C 77.9785 -55.5176 77.2461 -54.7852 77.2461 -53.7109 L 77.2461 -16.7969 C 77.2461 -15.6738 77.9785 -14.9414 79.0527 -14.9414 Z M 104.59 -21.0938 C 105.664 -21.0938 106.396 -21.8262 106.396 -22.9004 L 106.396 -47.5586 C 106.396 -48.6328 105.664 -49.4141 104.59 -49.4141 C 103.467 -49.4141 102.734 -48.6328 102.734 -47.5586 L 102.734 -22.9004 C 102.734 -21.8262 103.467 -21.0938 104.59 -21.0938 Z M 40.7715 -26.1719 C 41.8457 -26.1719 42.627 -26.9043 42.627 -27.9785 L 42.627 -42.4805 C 42.627 -43.5547 41.8457 -44.2871 40.7715 -44.2871 C 39.6973 -44.2871 38.9648 -43.5547 38.9648 -42.4805 L 38.9648 -27.9785 C 38.9648 -26.9043 39.6973 -26.1719 40.7715 -26.1719 Z"/>
  </g>
  <g id="Ultralight-L" transform="matrix(1 0 0 1 487.616 1556)">
   <path d="M 72.1191 25.5371 C 105.566 25.5371 132.91 -1.80664 132.91 -35.2539 C 132.91 -68.75 105.566 -96.0938 72.1191 -96.0938 C 38.623 -96.0938 11.2793 -68.75 11.2793 -35.2539 C 11.2793 -1.80664 38.623 25.5371 72.1191 25.5371 Z M 72.1191 23.0469 C 39.9414 23.0469 13.7695 -3.125 13.7695 -35.2539 C 13.7695 -67.4316 39.9414 -93.6035 72.1191 -93.6035 C 104.248 -93.6035 130.42 -67.4316 130.42 -35.2539 C 130.42 -3.125 104.248 23.0469 72.1191 23.0469 Z M 65.6738 5.61523 C 66.5039 5.61523 67.041 5.07812 67.041 4.24805 L 67.041 -74.7559 C 67.041 -75.6348 66.5039 -76.1719 65.6738 -76.1719 C 64.7949 -76.1719 64.2578 -75.6348 64.2578 -74.7559 L 64.2578 4.24805 C 64.2578 5.07812 64.7949 5.61523 65.6738 5.61523 Z M 91.1621 -6.64062 C 91.9922 -6.64062 92.5293 -7.17773 92.5293 -8.05664 L 92.5293 -62.4023 C 92.5293 -63.2324 91.9922 -63.8184 91.1621 -63.8184 C 90.2832 -63.8184 89.7461 -63.2324 89.7461 -62.4023 L 89.7461 -8.05664 C 89.7461 -7.17773 90.2832 -6.64062 91.1621 -6.64062 Z M 52.9785 -12.3047 C 53.8086 -12.3047 54.3457 -12.8906 54.3457 -13.7207 L 54.3457 -56.7383 C 54.3457 -57.5684 53.8086 -58.1055 52.9785 -58.1055 C 52.0996 -58.1055 51.5625 -57.5684 51.5625 -56.7383 L 51.5625 -13.7207 C 51.5625 -12.8906 52.0996 -12.3047 52.9785 -12.3047 Z M 78.4668 -14.7461 C 79.2969 -14.7461 79.834 -15.2832 79.834 -16.1621 L 79.834 -54.2969 C 79.834 -55.1758 79.2969 -55.7129 78.4668 -55.7129 C 77.5879 -55.7129 77.0508 -55.1758 77.0508 -54.2969 L 77.0508 -16.1621 C 77.0508 -15.2832 77.5879 -14.7461 78.4668 -14.7461 Z M 103.906 -20.7031 C 104.785 -20.7031 105.322 -21.2402 105.322 -22.0703 L 105.322 -48.3398 C 105.322 -49.2188 104.785 -49.7559 103.906 -49.7559 C 103.076 -49.7559 102.539 -49.2188 102.539 -48.3398 L 102.539 -22.0703 C 102.539 -21.2402 103.076 -20.7031 103.906 -20.7031 Z M 40.1855 -26.2207 C 41.0156 -26.2207 41.5527 -26.7578 41.5527 -27.5879 L 41.5527 -42.8223 C 41.5527 -43.7012 41.0156 -44.2383 40.1855 -44.2383 C 39.3066 -44.2383 38.7695 -43.7012 38.7695 -42.8223 L 38.7695 -27.5879 C 38.7695 -26.7578 39.3066 -26.2207 40.1855 -26.2207 Z"/>
  </g>
  <g id="Black-M" transform="matrix(1 0 0 1 2870.97 1126)">
   <path d="M 62.4023 18.457 C 91.9922 18.457 116.113 -5.61523 116.113 -35.2051 C 116.113 -64.7949 91.9922 -88.8672 62.4023 -88.8672 C 32.8125 -88.8672 8.74023 -64.7949 8.74023 -35.2051 C 8.74023 -5.61523 32.8125 18.457 62.4023 18.457 Z M 62.4023 0.195312 C 42.8711 0.195312 27.002 -15.625 27.002 -35.2051 C 27.002 -54.7363 42.8711 -70.6055 62.4023 -70.6055 C 81.9824 -70.6055 97.8027 -54.7363 97.8027 -35.2051 C 97.8027 -15.625 81.9824 0.195312 62.4023 0.195312 Z M 57.7637 -9.375 C 59.668 -9.375 61.2305 -10.9375 61.2305 -12.8418 L 61.2305 -57.5684 C 61.2305 -59.5215 59.668 -61.0352 57.7637 -61.0352 C 55.8105 -61.0352 54.3457 -59.4727 54.3457 -57.5684 L 54.3457 -12.8418 C 54.3457 -10.9375 55.8105 -9.375 57.7637 -9.375 Z M 76.2207 -14.3066 C 78.1738 -14.3066 79.6387 -15.8203 79.6387 -17.7246 L 79.6387 -52.6367 C 79.6387 -54.5898 78.1738 -56.1035 76.2207 -56.1035 C 74.2188 -56.1035 72.7539 -54.5898 72.7539 -52.6367 L 72.7539 -17.7246 C 72.7539 -15.8203 74.3164 -14.3066 76.2207 -14.3066 Z M 48.4863 -15.8203 C 50.4883 -15.8203 52.0508 -17.3828 52.0508 -19.2383 L 52.0508 -51.1719 C 52.0508 -53.0273 50.4883 -54.5898 48.4863 -54.5898 C 46.5332 -54.5898 45.0684 -53.0273 45.0684 -51.1719 L 45.0684 -19.2383 C 45.0684 -17.2852 46.6309 -15.8203 48.4863 -15.8203 Z M 67.041 -18.2617 C 68.9453 -18.2617 70.459 -19.8242 70.459 -21.7285 L 70.459 -48.6328 C 70.459 -50.6348 68.8965 -52.1484 67.041 -52.1484 C 65.0879 -52.1484 63.5254 -50.5859 63.5254 -48.6328 L 63.5254 -21.7285 C 63.5254 -19.8242 65.0879 -18.2617 67.041 -18.2617 Z M 85.4492 -24.3652 C 87.3535 -24.3652 88.8672 -25.9277 88.8672 -27.8809 L 88.8672 -42.5293 C 88.8672 -44.5312 87.3047 -45.9961 85.4492 -45.9961 C 83.4473 -45.9961 81.9336 -44.4336 81.9336 -42.5293 L 81.9336 -27.8809 C 81.9336 -25.8789 83.4473 -24.3652 85.4492 -24.3652 Z M 39.209 -26.5137 C 41.2109 -26.5137 42.7734 -28.0762 42.7734 -29.9805 L 42.7734 -40.3809 C 42.7734 -42.334 41.2109 -43.8965 39.209 -43.8965 C 37.3535 -43.8965 35.791 -42.334 35.791 -40.3809 L 35.791 -29.9805 C 35.791 -28.0762 37.3535 -26.5137 39.209 -26.5137 Z"/>
  </g>
  <g id="Heavy-M" transform="matrix(1 0 0 1 2575.19 1126)">
   <path d="M 61.5234 17.5293 C 90.5273 17.5293 114.258 -6.20117 114.258 -35.2051 C 114.258 -64.2578 90.5273 -87.9883 61.4746 -87.9883 C 32.4707 -87.9883 8.74023 -64.2578 8.74023 -35.2051 C 8.74023 -6.20117 32.4707 17.5293 61.5234 17.5293 Z M 61.5234 1.61133 C 41.1133 1.61133 24.6582 -14.8438 24.6582 -35.2051 C 24.6582 -55.6152 41.1133 -72.0703 61.4746 -72.0703 C 81.8848 -72.0703 98.3398 -55.6152 98.3398 -35.2051 C 98.3398 -14.8438 81.8848 1.61133 61.5234 1.61133 Z M 56.7871 -7.91016 C 58.6426 -7.91016 60.1074 -9.42383 60.1074 -11.2793 L 60.1074 -59.1309 C 60.1074 -61.0352 58.6426 -62.5 56.7871 -62.5 C 54.8828 -62.5 53.4668 -60.9863 53.4668 -59.1309 L 53.4668 -11.2793 C 53.4668 -9.42383 54.8828 -7.91016 56.7871 -7.91016 Z M 75.5371 -13.3301 C 77.3926 -13.3301 78.8574 -14.7949 78.8574 -16.6504 L 78.8574 -53.8086 C 78.8574 -55.6641 77.3926 -57.0801 75.5371 -57.0801 C 73.6328 -57.0801 72.168 -55.6641 72.168 -53.8086 L 72.168 -16.6504 C 72.168 -14.7949 73.6816 -13.3301 75.5371 -13.3301 Z M 47.3633 -15.918 C 49.2676 -15.918 50.7324 -17.4316 50.7324 -19.2383 L 50.7324 -51.2207 C 50.7324 -53.0273 49.2676 -54.4922 47.3633 -54.4922 C 45.459 -54.4922 44.043 -53.0273 44.043 -51.2207 L 44.043 -19.2383 C 44.043 -17.3828 45.5078 -15.918 47.3633 -15.918 Z M 66.1621 -18.7012 C 68.0664 -18.7012 69.4824 -20.2148 69.4824 -22.0703 L 69.4824 -48.3398 C 69.4824 -50.2441 68.0176 -51.709 66.1621 -51.709 C 64.3066 -51.709 62.8418 -50.1953 62.8418 -48.3398 L 62.8418 -22.0703 C 62.8418 -20.2148 64.3066 -18.7012 66.1621 -18.7012 Z M 84.9121 -24.6582 C 86.8164 -24.6582 88.2324 -26.1719 88.2324 -28.0273 L 88.2324 -42.3828 C 88.2324 -44.3359 86.7676 -45.752 84.9121 -45.752 C 83.0078 -45.752 81.543 -44.2871 81.543 -42.3828 L 81.543 -28.0273 C 81.543 -26.123 83.0078 -24.6582 84.9121 -24.6582 Z M 37.8906 -26.8555 C 39.8438 -26.8555 41.3086 -28.3691 41.3086 -30.2246 L 41.3086 -40.1855 C 41.3086 -42.0898 39.8438 -43.5547 37.8906 -43.5547 C 36.084 -43.5547 34.6191 -42.0898 34.6191 -40.1855 L 34.6191 -30.2246 C 34.6191 -28.3691 36.084 -26.8555 37.8906 -26.8555 Z"/>
  </g>
  <g id="Bold-M" transform="matrix(1 0 0 1 2279.5 1126)">
   <path d="M 60.498 16.5039 C 88.8672 16.5039 112.207 -6.83594 112.207 -35.2051 C 112.207 -63.623 88.8672 -86.9629 60.4492 -86.9629 C 32.0312 -86.9629 8.74023 -63.623 8.74023 -35.2051 C 8.74023 -6.83594 32.0801 16.5039 60.498 16.5039 Z M 60.498 3.22266 C 39.1602 3.22266 22.0703 -13.916 22.0703 -35.2051 C 22.0703 -56.543 39.1602 -73.6816 60.4492 -73.6816 C 81.7383 -73.6816 98.9258 -56.543 98.9258 -35.2051 C 98.9746 -13.916 81.7871 3.22266 60.498 3.22266 Z M 55.6641 -6.34766 C 57.4219 -6.34766 58.8379 -7.76367 58.8379 -9.57031 L 58.8379 -60.8887 C 58.8379 -62.7441 57.4219 -64.1113 55.6641 -64.1113 C 53.8574 -64.1113 52.4902 -62.6953 52.4902 -60.8887 L 52.4902 -9.57031 C 52.4902 -7.71484 53.8086 -6.34766 55.6641 -6.34766 Z M 74.7559 -12.207 C 76.5625 -12.207 77.9785 -13.623 77.9785 -15.3809 L 77.9785 -55.0781 C 77.9785 -56.8848 76.5625 -58.252 74.7559 -58.252 C 72.9492 -58.252 71.582 -56.8848 71.582 -55.0781 L 71.582 -15.3809 C 71.582 -13.623 72.998 -12.207 74.7559 -12.207 Z M 46.0938 -16.0645 C 47.9004 -16.0645 49.3164 -17.4805 49.3164 -19.2383 L 49.3164 -51.2695 C 49.3164 -52.9785 47.9004 -54.3945 46.0938 -54.3945 C 44.2871 -54.3945 42.8711 -52.9785 42.8711 -51.2695 L 42.8711 -19.2383 C 42.8711 -17.4316 44.2871 -16.0645 46.0938 -16.0645 Z M 65.2344 -19.2383 C 67.041 -19.2383 68.4082 -20.6543 68.4082 -22.4121 L 68.4082 -48.0469 C 68.4082 -49.8535 66.9922 -51.2207 65.2344 -51.2207 C 63.4277 -51.2207 62.0117 -49.8047 62.0117 -48.0469 L 62.0117 -22.4121 C 62.0117 -20.6543 63.4277 -19.2383 65.2344 -19.2383 Z M 84.375 -25 C 86.1816 -25 87.5488 -26.416 87.5488 -28.1738 L 87.5488 -42.2852 C 87.5488 -44.0918 86.1328 -45.459 84.375 -45.459 C 82.5195 -45.459 81.1523 -44.043 81.1523 -42.2852 L 81.1523 -28.1738 C 81.1523 -26.3672 82.5195 -25 84.375 -25 Z M 36.4746 -27.2949 C 38.2812 -27.2949 39.6973 -28.7109 39.6973 -30.4688 L 39.6973 -39.9902 C 39.6973 -41.748 38.2812 -43.2129 36.4746 -43.2129 C 34.7168 -43.2129 33.3008 -41.748 33.3008 -39.9902 L 33.3008 -30.4688 C 33.3008 -28.7109 34.7168 -27.2949 36.4746 -27.2949 Z"/>
  </g>
  <g id="Semibold-M" transform="matrix(1 0 0 1 1983.5 1126)">
   <path d="M 59.7656 15.8203 C 87.7441 15.8203 110.791 -7.27539 110.791 -35.2539 C 110.791 -63.2324 87.6953 -86.2793 59.7656 -86.2793 C 31.7871 -86.2793 8.74023 -63.2324 8.74023 -35.2539 C 8.74023 -7.27539 31.7871 15.8203 59.7656 15.8203 Z M 59.7656 4.3457 C 37.8418 4.3457 20.2637 -13.3301 20.2637 -35.2539 C 20.2637 -57.1777 37.793 -74.8047 59.7656 -74.8047 C 81.6895 -74.8047 99.3164 -57.1777 99.3652 -35.2539 C 99.3652 -13.3301 81.6895 4.3457 59.7656 4.3457 Z M 54.8828 -5.22461 C 56.6406 -5.22461 58.0078 -6.5918 58.0078 -8.34961 L 58.0078 -62.1582 C 58.0078 -63.916 56.6406 -65.2832 54.8828 -65.2832 C 53.125 -65.2832 51.8066 -63.8672 51.8066 -62.1582 L 51.8066 -8.34961 C 51.8066 -6.54297 53.125 -5.22461 54.8828 -5.22461 Z M 74.2676 -11.4746 C 76.0254 -11.4746 77.3438 -12.793 77.3438 -14.5508 L 77.3438 -55.957 C 77.3438 -57.666 76.0254 -59.0332 74.2676 -59.0332 C 72.5098 -59.0332 71.1426 -57.666 71.1426 -55.957 L 71.1426 -14.5508 C 71.1426 -12.793 72.5098 -11.4746 74.2676 -11.4746 Z M 45.2148 -16.1621 C 46.9238 -16.1621 48.291 -17.5293 48.291 -19.2383 L 48.291 -51.2695 C 48.291 -52.9785 46.9238 -54.3457 45.2148 -54.3457 C 43.457 -54.3457 42.0898 -52.9785 42.0898 -51.2695 L 42.0898 -19.2383 C 42.0898 -17.4805 43.457 -16.1621 45.2148 -16.1621 Z M 64.5508 -19.5801 C 66.3086 -19.5801 67.6758 -20.9473 67.6758 -22.7051 L 67.6758 -47.8027 C 67.6758 -49.5605 66.3086 -50.9277 64.5508 -50.9277 C 62.8418 -50.9277 61.4746 -49.5605 61.4746 -47.8027 L 61.4746 -22.7051 C 61.4746 -20.9473 62.8418 -19.5801 64.5508 -19.5801 Z M 83.9844 -25.2441 C 85.7422 -25.2441 87.0605 -26.5625 87.0605 -28.3203 L 87.0605 -42.1875 C 87.0605 -43.9453 85.6934 -45.2637 83.9844 -45.2637 C 82.1777 -45.2637 80.8594 -43.8965 80.8594 -42.1875 L 80.8594 -28.3203 C 80.8594 -26.5625 82.1777 -25.2441 83.9844 -25.2441 Z M 35.4492 -27.5879 C 37.2559 -27.5879 38.623 -28.9551 38.623 -30.6641 L 38.623 -39.8438 C 38.623 -41.5527 37.2559 -42.9199 35.4492 -42.9199 C 33.7402 -42.9199 32.373 -41.5527 32.373 -39.8438 L 32.373 -30.6641 C 32.373 -28.9551 33.7402 -27.5879 35.4492 -27.5879 Z"/>
  </g>
  <g id="Medium-M" transform="matrix(1 0 0 1 1687.3 1126)">
   <path d="M 59.2285 15.2344 C 86.9141 15.2344 109.766 -7.61719 109.766 -35.2539 C 109.766 -62.8906 86.8652 -85.7422 59.1797 -85.7422 C 31.543 -85.7422 8.74023 -62.8906 8.74023 -35.2539 C 8.74023 -7.61719 31.5918 15.2344 59.2285 15.2344 Z M 59.2285 5.17578 C 36.8164 5.17578 18.8965 -12.8418 18.8965 -35.2539 C 18.8965 -57.666 36.8164 -75.6348 59.1797 -75.6348 C 81.5918 -75.6348 99.6094 -57.666 99.6582 -35.2539 C 99.707 -12.8418 81.6406 5.17578 59.2285 5.17578 Z M 54.2969 -4.39453 C 56.0059 -4.39453 57.3242 -5.71289 57.3242 -7.42188 L 57.3242 -63.0859 C 57.3242 -64.7949 56.0059 -66.1133 54.2969 -66.1133 C 52.5879 -66.1133 51.2695 -64.7949 51.2695 -63.0859 L 51.2695 -7.42188 C 51.2695 -5.66406 52.5391 -4.39453 54.2969 -4.39453 Z M 73.8281 -10.8887 C 75.5859 -10.8887 76.9043 -12.207 76.9043 -13.8672 L 76.9043 -56.6406 C 76.9043 -58.3008 75.5859 -59.6191 73.8281 -59.6191 C 72.168 -59.6191 70.8496 -58.3008 70.8496 -56.6406 L 70.8496 -13.8672 C 70.8496 -12.207 72.168 -10.8887 73.8281 -10.8887 Z M 44.5312 -16.2109 C 46.2402 -16.2109 47.5586 -17.5293 47.5586 -19.2383 L 47.5586 -51.3184 C 47.5586 -52.9785 46.2402 -54.2969 44.5312 -54.2969 C 42.8223 -54.2969 41.5039 -52.9785 41.5039 -51.3184 L 41.5039 -19.2383 C 41.5039 -17.5293 42.8223 -16.2109 44.5312 -16.2109 Z M 64.0625 -19.873 C 65.7715 -19.873 67.0898 -21.1914 67.0898 -22.8516 L 67.0898 -47.6562 C 67.0898 -49.3652 65.7715 -50.6836 64.0625 -50.6836 C 62.4023 -50.6836 61.084 -49.3164 61.084 -47.6562 L 61.084 -22.8516 C 61.084 -21.1914 62.4023 -19.873 64.0625 -19.873 Z M 83.6914 -25.3906 C 85.4004 -25.3906 86.6699 -26.6602 86.6699 -28.418 L 86.6699 -42.1387 C 86.6699 -43.8477 85.4004 -45.1172 83.6914 -45.1172 C 81.9336 -45.1172 80.6152 -43.7988 80.6152 -42.1387 L 80.6152 -28.418 C 80.6152 -26.709 81.9336 -25.3906 83.6914 -25.3906 Z M 34.7168 -27.7832 C 36.4258 -27.7832 37.7441 -29.1016 37.7441 -30.8105 L 37.7441 -39.7461 C 37.7441 -41.4062 36.4258 -42.7246 34.7168 -42.7246 C 33.0078 -42.7246 31.6895 -41.4062 31.6895 -39.7461 L 31.6895 -30.8105 C 31.6895 -29.1016 33.0078 -27.7832 34.7168 -27.7832 Z"/>
  </g>
  <g id="Regular-M" transform="matrix(1 0 0 1 1391.3 1126)">
   <path d="M 58.5449 14.5508 C 85.791 14.5508 108.35 -8.05664 108.35 -35.2539 C 108.35 -62.5 85.7422 -85.0586 58.4961 -85.0586 C 31.2988 -85.0586 8.74023 -62.5 8.74023 -35.2539 C 8.74023 -8.05664 31.3477 14.5508 58.5449 14.5508 Z M 58.5449 6.25 C 35.498 6.25 17.0898 -12.207 17.0898 -35.2539 C 17.0898 -58.3008 35.4492 -76.7578 58.4961 -76.7578 C 81.543 -76.7578 100 -58.3008 100.049 -35.2539 C 100.098 -12.207 81.5918 6.25 58.5449 6.25 Z M 53.5645 -3.27148 C 55.1758 -3.27148 56.4453 -4.58984 56.4453 -6.25 L 56.4453 -64.2578 C 56.4453 -65.9668 55.1758 -67.2363 53.5645 -67.2363 C 51.9043 -67.2363 50.5859 -65.9668 50.5859 -64.2578 L 50.5859 -6.25 C 50.5859 -4.54102 51.8555 -3.27148 53.5645 -3.27148 Z M 73.3398 -10.1562 C 75 -10.1562 76.2695 -11.4258 76.2695 -13.0371 L 76.2695 -57.5195 C 76.2695 -59.1309 75 -60.4004 73.3398 -60.4004 C 71.6797 -60.4004 70.4102 -59.1309 70.4102 -57.5195 L 70.4102 -13.0371 C 70.4102 -11.4258 71.6797 -10.1562 73.3398 -10.1562 Z M 43.6523 -16.3086 C 45.3125 -16.3086 46.582 -17.5781 46.582 -19.2383 L 46.582 -51.3672 C 46.582 -52.9785 45.3125 -54.248 43.6523 -54.248 C 41.9922 -54.248 40.7227 -52.9785 40.7227 -51.3672 L 40.7227 -19.2383 C 40.7227 -17.5781 41.9922 -16.3086 43.6523 -16.3086 Z M 63.4277 -20.2148 C 65.0879 -20.2148 66.3574 -21.4844 66.3574 -23.0957 L 66.3574 -47.4609 C 66.3574 -49.0723 65.0879 -50.3418 63.4277 -50.3418 C 61.8164 -50.3418 60.498 -49.0723 60.498 -47.4609 L 60.498 -23.0957 C 60.498 -21.4844 61.8164 -20.2148 63.4277 -20.2148 Z M 83.3008 -25.6348 C 84.9609 -25.6348 86.1816 -26.8555 86.1816 -28.5156 L 86.1816 -42.041 C 86.1816 -43.7012 84.9609 -44.9219 83.3008 -44.9219 C 81.5918 -44.9219 80.3223 -43.6523 80.3223 -42.041 L 80.3223 -28.5156 C 80.3223 -26.9043 81.5918 -25.6348 83.3008 -25.6348 Z M 33.6914 -28.0762 C 35.4004 -28.0762 36.6699 -29.3457 36.6699 -30.957 L 36.6699 -39.5996 C 36.6699 -41.2109 35.4004 -42.4805 33.6914 -42.4805 C 32.0801 -42.4805 30.8105 -41.2109 30.8105 -39.5996 L 30.8105 -30.957 C 30.8105 -29.3457 32.0801 -28.0762 33.6914 -28.0762 Z"/>
  </g>
  <g id="Light-M" transform="matrix(1 0 0 1 1095.42 1126)">
   <path d="M 57.7148 13.7207 C 84.5215 13.7207 106.689 -8.44727 106.689 -35.2539 C 106.689 -62.1094 84.5215 -84.2285 57.666 -84.2285 C 30.8594 -84.2285 8.74023 -62.1094 8.74023 -35.2539 C 8.74023 -8.44727 30.9082 13.7207 57.7148 13.7207 Z M 57.7148 7.37305 C 34.082 7.37305 15.0879 -11.6699 15.0879 -35.2539 C 15.0879 -58.8867 34.082 -77.9297 57.666 -77.9297 C 81.2988 -77.9297 100.342 -58.8867 100.391 -35.2539 C 100.391 -11.6699 81.3477 7.37305 57.7148 7.37305 Z M 52.7344 -3.36914 C 54.0527 -3.36914 55.0781 -4.39453 55.0781 -5.76172 L 55.0781 -64.7461 C 55.0781 -66.1133 54.0527 -67.1387 52.7344 -67.1387 C 51.3672 -67.1387 50.3418 -66.1133 50.3418 -64.7461 L 50.3418 -5.76172 C 50.3418 -4.3457 51.3184 -3.36914 52.7344 -3.36914 Z M 72.5098 -11.0352 C 73.8281 -11.0352 74.8535 -12.0605 74.8535 -13.3789 L 74.8535 -57.1289 C 74.8535 -58.4473 73.8281 -59.4727 72.5098 -59.4727 C 71.1426 -59.4727 70.166 -58.4473 70.166 -57.1289 L 70.166 -13.3789 C 70.166 -12.0605 71.1426 -11.0352 72.5098 -11.0352 Z M 42.8711 -16.6504 C 44.1895 -16.6504 45.2148 -17.6758 45.2148 -19.043 L 45.2148 -51.5137 C 45.2148 -52.832 44.1895 -53.8574 42.8711 -53.8574 C 41.5039 -53.8574 40.4785 -52.832 40.4785 -51.5137 L 40.4785 -19.043 C 40.4785 -17.6758 41.5039 -16.6504 42.8711 -16.6504 Z M 62.5977 -19.9219 C 63.9648 -19.9219 64.9902 -20.9473 64.9902 -22.2656 L 64.9902 -48.2422 C 64.9902 -49.5605 63.9648 -50.5859 62.5977 -50.5859 C 61.2793 -50.5859 60.2539 -49.5605 60.2539 -48.2422 L 60.2539 -22.2656 C 60.2539 -20.9473 61.2793 -19.9219 62.5977 -19.9219 Z M 82.4219 -25.0977 C 83.7891 -25.0977 84.7656 -26.0742 84.7656 -27.4414 L 84.7656 -43.0664 C 84.7656 -44.4336 83.7891 -45.4102 82.4219 -45.4102 C 81.0547 -45.4102 80.0781 -44.3848 80.0781 -43.0664 L 80.0781 -27.4414 C 80.0781 -26.123 81.0547 -25.0977 82.4219 -25.0977 Z M 32.9102 -28.125 C 34.2773 -28.125 35.3027 -29.1504 35.3027 -30.4688 L 35.3027 -40.0391 C 35.3027 -41.4062 34.2773 -42.3828 32.9102 -42.3828 C 31.5918 -42.3828 30.5664 -41.4062 30.5664 -40.0391 L 30.5664 -30.4688 C 30.5664 -29.1504 31.5918 -28.125 32.9102 -28.125 Z"/>
  </g>
  <g id="Thin-M" transform="matrix(1 0 0 1 799.806 1126)">
   <path d="M 56.6406 12.5977 C 82.9102 12.5977 104.492 -8.98438 104.492 -35.2539 C 104.492 -61.5723 82.9102 -83.1543 56.5918 -83.1543 C 30.3223 -83.1543 8.74023 -61.5723 8.74023 -35.2539 C 8.74023 -8.98438 30.3223 12.5977 56.6406 12.5977 Z M 56.6406 8.88672 C 32.2266 8.88672 12.4512 -10.8887 12.4512 -35.2539 C 12.4512 -59.6191 32.2266 -79.4434 56.5918 -79.4434 C 81.0059 -79.4434 100.781 -59.6191 100.781 -35.2539 C 100.781 -10.8887 81.0059 8.88672 56.6406 8.88672 Z M 51.6602 -3.4668 C 52.5879 -3.4668 53.2227 -4.15039 53.2227 -5.07812 L 53.2227 -65.4297 C 53.2227 -66.3574 52.5879 -67.041 51.6602 -67.041 C 50.6836 -67.041 50.0488 -66.3574 50.0488 -65.4297 L 50.0488 -5.07812 C 50.0488 -4.15039 50.6836 -3.4668 51.6602 -3.4668 Z M 71.3867 -12.2559 C 72.3633 -12.2559 72.998 -12.9395 72.998 -13.8672 L 72.998 -56.6406 C 72.998 -57.5684 72.3633 -58.2031 71.3867 -58.2031 C 70.459 -58.2031 69.7754 -57.5684 69.7754 -56.6406 L 69.7754 -13.8672 C 69.7754 -12.9395 70.459 -12.2559 71.3867 -12.2559 Z M 41.7969 -17.1387 C 42.7246 -17.1387 43.3594 -17.8223 43.3594 -18.75 L 43.3594 -51.7578 C 43.3594 -52.6855 42.7246 -53.3203 41.7969 -53.3203 C 40.8203 -53.3203 40.1855 -52.6855 40.1855 -51.7578 L 40.1855 -18.75 C 40.1855 -17.8223 40.8203 -17.1387 41.7969 -17.1387 Z M 61.5234 -19.5801 C 62.5 -19.5801 63.1348 -20.2637 63.1348 -21.1914 L 63.1348 -49.2676 C 63.1348 -50.2441 62.5 -50.8789 61.5234 -50.8789 C 60.5957 -50.8789 59.9609 -50.2441 59.9609 -49.2676 L 59.9609 -21.1914 C 59.9609 -20.2637 60.5957 -19.5801 61.5234 -19.5801 Z M 81.2988 -24.4141 C 82.2754 -24.4141 82.9102 -25.0977 82.9102 -26.0254 L 82.9102 -44.4824 C 82.9102 -45.4102 82.2754 -46.0449 81.2988 -46.0449 C 80.3711 -46.0449 79.6875 -45.4102 79.6875 -44.4824 L 79.6875 -26.0254 C 79.6875 -25.0977 80.3711 -24.4141 81.2988 -24.4141 Z M 31.8848 -28.1738 C 32.8125 -28.1738 33.4473 -28.8574 33.4473 -29.7852 L 33.4473 -40.6738 C 33.4473 -41.6504 32.8125 -42.2852 31.8848 -42.2852 C 30.9082 -42.2852 30.2734 -41.6504 30.2734 -40.6738 L 30.2734 -29.7852 C 30.2734 -28.8574 30.9082 -28.1738 31.8848 -28.1738 Z"/>
  </g>
  <g id="Ultralight-M" transform="matrix(1 0 0 1 503.656 1126)">
   <path d="M 56.0547 12.0605 C 82.0801 12.0605 103.369 -9.22852 103.369 -35.2539 C 103.369 -61.2793 82.0801 -82.5684 56.0547 -82.5684 C 30.0293 -82.5684 8.74023 -61.2793 8.74023 -35.2539 C 8.74023 -9.22852 30.0293 12.0605 56.0547 12.0605 Z M 56.0547 9.66797 C 31.2988 9.66797 11.1328 -10.498 11.1328 -35.2539 C 11.1328 -60.0586 31.2988 -80.1758 56.0547 -80.1758 C 80.8594 -80.1758 100.977 -60.0586 100.977 -35.2539 C 100.977 -10.498 80.8594 9.66797 56.0547 9.66797 Z M 51.0742 -3.56445 C 51.8066 -3.56445 52.2949 -4.00391 52.2949 -4.73633 L 52.2949 -65.7715 C 52.2949 -66.5039 51.8066 -66.9922 51.0742 -66.9922 C 50.3418 -66.9922 49.8535 -66.5039 49.8535 -65.7715 L 49.8535 -4.73633 C 49.8535 -4.00391 50.3418 -3.56445 51.0742 -3.56445 Z M 70.8496 -12.8906 C 71.582 -12.8906 72.0703 -13.3789 72.0703 -14.1113 L 72.0703 -56.3477 C 72.0703 -57.0801 71.582 -57.5684 70.8496 -57.5684 C 70.1172 -57.5684 69.6289 -57.0801 69.6289 -56.3477 L 69.6289 -14.1113 C 69.6289 -13.3789 70.1172 -12.8906 70.8496 -12.8906 Z M 41.2109 -17.3828 C 41.9434 -17.3828 42.4316 -17.8711 42.4316 -18.6035 L 42.4316 -51.8555 C 42.4316 -52.5879 41.9434 -53.0762 41.2109 -53.0762 C 40.4785 -53.0762 40.0391 -52.5879 40.0391 -51.8555 L 40.0391 -18.6035 C 40.0391 -17.8711 40.4785 -17.3828 41.2109 -17.3828 Z M 60.9863 -19.4336 C 61.7188 -19.4336 62.207 -19.9219 62.207 -20.6543 L 62.207 -49.8047 C 62.207 -50.5371 61.7188 -51.0254 60.9863 -51.0254 C 60.2539 -51.0254 59.7656 -50.5371 59.7656 -49.8047 L 59.7656 -20.6543 C 59.7656 -19.9219 60.2539 -19.4336 60.9863 -19.4336 Z M 80.7617 -24.0723 C 81.4941 -24.0723 81.9824 -24.5605 81.9824 -25.293 L 81.9824 -45.166 C 81.9824 -45.8984 81.4941 -46.3867 80.7617 -46.3867 C 80.0293 -46.3867 79.541 -45.8984 79.541 -45.166 L 79.541 -25.293 C 79.541 -24.5605 80.0293 -24.0723 80.7617 -24.0723 Z M 31.2988 -28.2227 C 32.0312 -28.2227 32.5195 -28.7109 32.5195 -29.4434 L 32.5195 -41.0156 C 32.5195 -41.748 32.0312 -42.2363 31.2988 -42.2363 C 30.6152 -42.2363 30.127 -41.748 30.127 -41.0156 L 30.127 -29.4434 C 30.127 -28.7109 30.6152 -28.2227 31.2988 -28.2227 Z"/>
  </g>
  <g id="Black-S" transform="matrix(1 0 0 1 2884.57 696)">
   <path d="M 48.8281 6.78711 C 71.9727 6.78711 90.8203 -12.0605 90.8203 -35.2051 C 90.8203 -58.3496 71.9727 -77.1973 48.8281 -77.1973 C 25.6836 -77.1973 6.83594 -58.3496 6.83594 -35.2051 C 6.83594 -12.0605 25.6836 6.78711 48.8281 6.78711 Z M 48.8281 -7.37305 C 33.4473 -7.37305 20.9961 -19.8242 20.9961 -35.2051 C 20.9961 -50.5859 33.4473 -63.0371 48.8281 -63.0371 C 64.209 -63.0371 76.6602 -50.5859 76.6602 -35.2051 C 76.6602 -19.8242 64.209 -7.37305 48.8281 -7.37305 Z M 45.166 -14.8438 C 46.6797 -14.8438 47.9004 -16.0645 47.9004 -17.5781 L 47.9004 -52.832 C 47.9004 -54.3945 46.6797 -55.5664 45.166 -55.5664 C 43.6523 -55.5664 42.4805 -54.3457 42.4805 -52.832 L 42.4805 -17.5781 C 42.4805 -16.0645 43.6523 -14.8438 45.166 -14.8438 Z M 59.668 -18.75 C 61.1816 -18.75 62.3535 -19.9219 62.3535 -21.4355 L 62.3535 -48.9746 C 62.3535 -50.4883 61.1816 -51.6602 59.668 -51.6602 C 58.1055 -51.6602 56.9336 -50.4883 56.9336 -48.9746 L 56.9336 -21.4355 C 56.9336 -19.9219 58.1543 -18.75 59.668 -18.75 Z M 37.8906 -20.0195 C 39.4531 -20.0195 40.6738 -21.2402 40.6738 -22.7051 L 40.6738 -47.7051 C 40.6738 -49.1699 39.4531 -50.3906 37.8906 -50.3906 C 36.377 -50.3906 35.2051 -49.1699 35.2051 -47.7051 L 35.2051 -22.7051 C 35.2051 -21.1914 36.4258 -20.0195 37.8906 -20.0195 Z M 52.4414 -21.9727 C 53.9551 -21.9727 55.127 -23.1934 55.127 -24.707 L 55.127 -45.7031 C 55.127 -47.2656 53.9062 -48.4375 52.4414 -48.4375 C 50.9277 -48.4375 49.707 -47.2168 49.707 -45.7031 L 49.707 -24.707 C 49.707 -23.1934 50.9277 -21.9727 52.4414 -21.9727 Z M 66.8945 -26.7578 C 68.4082 -26.7578 69.5801 -27.9785 69.5801 -29.4922 L 69.5801 -40.918 C 69.5801 -42.4805 68.3594 -43.6523 66.8945 -43.6523 C 65.332 -43.6523 64.1602 -42.4316 64.1602 -40.918 L 64.1602 -29.4922 C 64.1602 -27.9297 65.332 -26.7578 66.8945 -26.7578 Z M 30.6152 -28.418 C 32.1777 -28.418 33.3984 -29.6387 33.3984 -31.1523 L 33.3984 -39.2578 C 33.3984 -40.7715 32.1777 -41.9922 30.6152 -41.9922 C 29.1504 -41.9922 27.9297 -40.7715 27.9297 -39.2578 L 27.9297 -31.1523 C 27.9297 -29.6387 29.1504 -28.418 30.6152 -28.418 Z"/>
  </g>
  <g id="Heavy-S" transform="matrix(1 0 0 1 2588.47 696)">
   <path d="M 48.2422 6.15234 C 70.9961 6.15234 89.5996 -12.4512 89.5996 -35.2051 C 89.5996 -57.959 70.9961 -76.6113 48.1934 -76.6113 C 25.4395 -76.6113 6.83594 -57.959 6.83594 -35.2051 C 6.83594 -12.4512 25.4395 6.15234 48.2422 6.15234 Z M 48.2422 -6.39648 C 32.2754 -6.39648 19.4336 -19.2871 19.4336 -35.2051 C 19.4336 -51.1719 32.2754 -64.0137 48.1934 -64.0137 C 64.1602 -64.0137 77.002 -51.1719 77.0508 -35.2051 C 77.0508 -19.2871 64.1602 -6.39648 48.2422 -6.39648 Z M 44.4824 -13.7207 C 45.9961 -13.7207 47.2168 -14.9414 47.2168 -16.4551 L 47.2168 -54.0039 C 47.2168 -55.5176 45.9961 -56.6895 44.4824 -56.6895 C 43.0176 -56.6895 41.8457 -55.5176 41.8457 -54.0039 L 41.8457 -16.4551 C 41.8457 -14.9414 42.9688 -13.7207 44.4824 -13.7207 Z M 59.2285 -17.9199 C 60.7422 -17.9199 61.9141 -19.043 61.9141 -20.5566 L 61.9141 -49.9023 C 61.9141 -51.3672 60.7422 -52.5391 59.2285 -52.5391 C 57.7148 -52.5391 56.543 -51.3672 56.543 -49.9023 L 56.543 -20.5566 C 56.543 -19.043 57.7637 -17.9199 59.2285 -17.9199 Z M 37.1094 -20.0684 C 38.623 -20.0684 39.8438 -21.2891 39.8438 -22.7539 L 39.8438 -47.7051 C 39.8438 -49.1699 38.623 -50.3906 37.1094 -50.3906 C 35.5957 -50.3906 34.4238 -49.1699 34.4238 -47.7051 L 34.4238 -22.7539 C 34.4238 -21.2402 35.6445 -20.0684 37.1094 -20.0684 Z M 51.9043 -22.3633 C 53.3691 -22.3633 54.541 -23.5352 54.541 -25.0488 L 54.541 -45.4102 C 54.541 -46.9238 53.3691 -48.0957 51.9043 -48.0957 C 50.3906 -48.0957 49.1699 -46.875 49.1699 -45.4102 L 49.1699 -25.0488 C 49.1699 -23.5352 50.3906 -22.3633 51.9043 -22.3633 Z M 66.6016 -27.0508 C 68.1152 -27.0508 69.2383 -28.2227 69.2383 -29.7363 L 69.2383 -40.7227 C 69.2383 -42.2363 68.0664 -43.4082 66.6016 -43.4082 C 65.0391 -43.4082 63.916 -42.1875 63.916 -40.7227 L 63.916 -29.7363 C 63.916 -28.2227 65.0391 -27.0508 66.6016 -27.0508 Z M 29.6875 -28.7109 C 31.25 -28.7109 32.4707 -29.8828 32.4707 -31.3965 L 32.4707 -39.0625 C 32.4707 -40.5273 31.25 -41.748 29.6875 -41.748 C 28.2715 -41.748 27.0508 -40.5273 27.0508 -39.0625 L 27.0508 -31.3965 C 27.0508 -29.8828 28.2715 -28.7109 29.6875 -28.7109 Z"/>
  </g>
  <g id="Bold-S" transform="matrix(1 0 0 1 2292.44 696)">
   <path d="M 47.5586 5.46875 C 69.873 5.46875 88.2324 -12.8906 88.2324 -35.2539 C 88.2324 -57.5684 69.873 -75.9277 47.5098 -75.9277 C 25.1953 -75.9277 6.83594 -57.5684 6.83594 -35.2539 C 6.83594 -12.8906 25.1953 5.46875 47.5586 5.46875 Z M 47.5586 -5.32227 C 30.957 -5.32227 17.6758 -18.6523 17.6758 -35.2539 C 17.6758 -51.8066 30.957 -65.1367 47.5098 -65.1367 C 64.1113 -65.1367 77.4414 -51.8066 77.4414 -35.2539 C 77.4414 -18.6523 64.1113 -5.32227 47.5586 -5.32227 Z M 43.75 -12.5 C 45.2148 -12.5 46.3867 -13.6719 46.3867 -15.1855 L 46.3867 -55.2734 C 46.3867 -56.7871 45.2148 -57.959 43.75 -57.959 C 42.2852 -57.959 41.1133 -56.7871 41.1133 -55.2734 L 41.1133 -15.1855 C 41.1133 -13.6719 42.2363 -12.5 43.75 -12.5 Z M 58.7402 -16.9434 C 60.2539 -16.9434 61.377 -18.1152 61.377 -19.5801 L 61.377 -50.9277 C 61.377 -52.3926 60.2539 -53.5645 58.7402 -53.5645 C 57.2754 -53.5645 56.1035 -52.3926 56.1035 -50.9277 L 56.1035 -19.5801 C 56.1035 -18.1152 57.2754 -16.9434 58.7402 -16.9434 Z M 36.2305 -20.1172 C 37.7441 -20.1172 38.916 -21.2891 38.916 -22.7539 L 38.916 -47.7539 C 38.916 -49.1699 37.7441 -50.3418 36.2305 -50.3418 C 34.7656 -50.3418 33.5938 -49.1699 33.5938 -47.7539 L 33.5938 -22.7539 C 33.5938 -21.2891 34.7656 -20.1172 36.2305 -20.1172 Z M 51.2695 -22.8027 C 52.7344 -22.8027 53.9062 -23.9746 53.9062 -25.4395 L 53.9062 -45.0684 C 53.9062 -46.5332 52.7344 -47.7051 51.2695 -47.7051 C 49.8047 -47.7051 48.6328 -46.5332 48.6328 -45.0684 L 48.6328 -25.4395 C 48.6328 -23.9746 49.8047 -22.8027 51.2695 -22.8027 Z M 66.2598 -27.3438 C 67.7734 -27.3438 68.8965 -28.5156 68.8965 -29.9805 L 68.8965 -40.4785 C 68.8965 -41.9922 67.7246 -43.1152 66.2598 -43.1152 C 64.7461 -43.1152 63.623 -41.9434 63.623 -40.4785 L 63.623 -29.9805 C 63.623 -28.5156 64.7461 -27.3438 66.2598 -27.3438 Z M 28.7109 -29.0039 C 30.2246 -29.0039 31.3965 -30.1758 31.3965 -31.6406 L 31.3965 -38.8184 C 31.3965 -40.2832 30.2246 -41.4551 28.7109 -41.4551 C 27.2461 -41.4551 26.0742 -40.2832 26.0742 -38.8184 L 26.0742 -31.6406 C 26.0742 -30.1758 27.2461 -29.0039 28.7109 -29.0039 Z"/>
  </g>
  <g id="Semibold-S" transform="matrix(1 0 0 1 1996.2 696)">
   <path d="M 47.0703 4.98047 C 69.0918 4.98047 87.3047 -13.1836 87.3047 -35.2539 C 87.3047 -57.2754 69.0918 -75.4883 47.0215 -75.4883 C 25 -75.4883 6.83594 -57.2754 6.83594 -35.2539 C 6.83594 -13.1836 25.0488 4.98047 47.0703 4.98047 Z M 47.0703 -4.58984 C 30.0781 -4.58984 16.4551 -18.2129 16.4551 -35.2539 C 16.4551 -52.2461 30.0293 -65.8691 47.0215 -65.8691 C 64.0625 -65.8691 77.6855 -52.2461 77.7344 -35.2539 C 77.7344 -18.2129 64.0625 -4.58984 47.0703 -4.58984 Z M 43.2617 -11.6699 C 44.6777 -11.6699 45.8496 -12.793 45.8496 -14.3066 L 45.8496 -56.2012 C 45.8496 -57.666 44.6777 -58.8379 43.2617 -58.8379 C 41.748 -58.8379 40.625 -57.666 40.625 -56.2012 L 40.625 -14.3066 C 40.625 -12.793 41.748 -11.6699 43.2617 -11.6699 Z M 58.3984 -16.2598 C 59.9121 -16.2598 61.0352 -17.4316 61.0352 -18.8965 L 61.0352 -51.6113 C 61.0352 -53.0762 59.9121 -54.248 58.3984 -54.248 C 56.9336 -54.248 55.8105 -53.0762 55.8105 -51.6113 L 55.8105 -18.8965 C 55.8105 -17.4316 56.9824 -16.2598 58.3984 -16.2598 Z M 35.6445 -20.166 C 37.1094 -20.166 38.2812 -21.3379 38.2812 -22.8027 L 38.2812 -47.7539 C 38.2812 -49.1699 37.1094 -50.3418 35.6445 -50.3418 C 34.1797 -50.3418 33.0078 -49.1699 33.0078 -47.7539 L 33.0078 -22.8027 C 33.0078 -21.2891 34.1797 -20.166 35.6445 -20.166 Z M 50.8301 -23.0957 C 52.2949 -23.0957 53.4668 -24.2188 53.4668 -25.6836 L 53.4668 -44.8242 C 53.4668 -46.2891 52.2949 -47.4121 50.8301 -47.4121 C 49.3652 -47.4121 48.1934 -46.2891 48.1934 -44.8242 L 48.1934 -25.6836 C 48.1934 -24.2188 49.3652 -23.0957 50.8301 -23.0957 Z M 66.0156 -27.5879 C 67.5293 -27.5879 68.6523 -28.7109 68.6523 -30.1758 L 68.6523 -40.332 C 68.6523 -41.8457 67.4805 -42.9199 66.0156 -42.9199 C 64.5508 -42.9199 63.3789 -41.7969 63.3789 -40.332 L 63.3789 -30.1758 C 63.3789 -28.7109 64.5508 -27.5879 66.0156 -27.5879 Z M 27.9785 -29.1992 C 29.4922 -29.1992 30.6641 -30.3711 30.6641 -31.8359 L 30.6641 -38.6719 C 30.6641 -40.1367 29.4922 -41.2598 27.9785 -41.2598 C 26.5625 -41.2598 25.3906 -40.1367 25.3906 -38.6719 L 25.3906 -31.8359 C 25.3906 -30.3711 26.5625 -29.1992 27.9785 -29.1992 Z"/>
  </g>
  <g id="Medium-S" transform="matrix(1 0 0 1 1699.83 696)">
   <path d="M 46.7285 4.63867 C 68.5547 4.63867 86.6211 -13.4277 86.6211 -35.2539 C 86.6211 -57.0801 68.5059 -75.1465 46.6797 -75.1465 C 24.8535 -75.1465 6.83594 -57.0801 6.83594 -35.2539 C 6.83594 -13.4277 24.9023 4.63867 46.7285 4.63867 Z M 46.7285 -4.00391 C 29.3945 -4.00391 15.5273 -17.9199 15.5273 -35.2539 C 15.5273 -52.5879 29.3457 -66.4551 46.6797 -66.4551 C 64.0137 -66.4551 77.8809 -52.5879 77.9297 -35.2539 C 77.9785 -17.9199 64.0625 -4.00391 46.7285 -4.00391 Z M 42.8711 -10.9863 C 44.2871 -10.9863 45.459 -12.1582 45.459 -13.623 L 45.459 -56.8359 C 45.459 -58.3496 44.2871 -59.4727 42.8711 -59.4727 C 41.4062 -59.4727 40.2344 -58.3496 40.2344 -56.8359 L 40.2344 -13.623 C 40.2344 -12.1094 41.3574 -10.9863 42.8711 -10.9863 Z M 58.1543 -15.7715 C 59.6191 -15.7715 60.791 -16.9434 60.791 -18.3594 L 60.791 -52.1484 C 60.791 -53.6133 59.6191 -54.7363 58.1543 -54.7363 C 56.7383 -54.7363 55.5664 -53.6133 55.5664 -52.1484 L 55.5664 -18.3594 C 55.5664 -16.9434 56.7383 -15.7715 58.1543 -15.7715 Z M 35.2051 -20.166 C 36.6211 -20.166 37.793 -21.3379 37.793 -22.8027 L 37.793 -47.7539 C 37.793 -49.1699 36.6211 -50.3418 35.2051 -50.3418 C 33.6914 -50.3418 32.5684 -49.1699 32.5684 -47.7539 L 32.5684 -22.8027 C 32.5684 -21.3379 33.7402 -20.166 35.2051 -20.166 Z M 50.4883 -23.291 C 51.9531 -23.291 53.125 -24.4629 53.125 -25.8789 L 53.125 -44.6289 C 53.125 -46.0938 51.9531 -47.2168 50.4883 -47.2168 C 49.0723 -47.2168 47.9004 -46.0938 47.9004 -44.6289 L 47.9004 -25.8789 C 47.9004 -24.4629 49.0723 -23.291 50.4883 -23.291 Z M 65.8691 -27.7344 C 67.334 -27.7344 68.457 -28.8574 68.457 -30.3223 L 68.457 -40.1855 C 68.457 -41.6992 67.334 -42.7734 65.8691 -42.7734 C 64.4043 -42.7734 63.2324 -41.6504 63.2324 -40.1855 L 63.2324 -30.3223 C 63.2324 -28.8574 64.4043 -27.7344 65.8691 -27.7344 Z M 27.4902 -29.3945 C 28.9551 -29.3945 30.0781 -30.5176 30.0781 -31.9824 L 30.0781 -38.5742 C 30.0781 -39.9902 28.9551 -41.1621 27.4902 -41.1621 C 26.0254 -41.1621 24.9023 -39.9902 24.9023 -38.5742 L 24.9023 -31.9824 C 24.9023 -30.5176 26.0254 -29.3945 27.4902 -29.3945 Z"/>
  </g>
  <g id="Regular-S" transform="matrix(1 0 0 1 1403.58 696)">
   <path d="M 46.2402 4.15039 C 67.7734 4.15039 85.6934 -13.7207 85.6934 -35.2539 C 85.6934 -56.7871 67.7246 -74.6582 46.1914 -74.6582 C 24.707 -74.6582 6.83594 -56.7871 6.83594 -35.2539 C 6.83594 -13.7207 24.7559 4.15039 46.2402 4.15039 Z M 46.2402 -3.27148 C 28.5156 -3.27148 14.3555 -17.4805 14.3555 -35.2539 C 14.3555 -53.0273 28.4668 -67.2363 46.1914 -67.2363 C 63.9648 -67.2363 78.1738 -53.0273 78.2227 -35.2539 C 78.2715 -17.4805 64.0137 -3.27148 46.2402 -3.27148 Z M 42.334 -10.1562 C 43.75 -10.1562 44.9219 -11.2793 44.9219 -12.7441 L 44.9219 -57.7637 C 44.9219 -59.2285 43.75 -60.3516 42.334 -60.3516 C 40.8691 -60.3516 39.7461 -59.2285 39.7461 -57.7637 L 39.7461 -12.7441 C 39.7461 -11.2305 40.8203 -10.1562 42.334 -10.1562 Z M 57.8125 -15.1367 C 59.2773 -15.1367 60.4492 -16.2598 60.4492 -17.6758 L 60.4492 -52.8809 C 60.4492 -54.2969 59.2773 -55.4199 57.8125 -55.4199 C 56.3965 -55.4199 55.2734 -54.2969 55.2734 -52.8809 L 55.2734 -17.6758 C 55.2734 -16.2598 56.3965 -15.1367 57.8125 -15.1367 Z M 34.5703 -20.2148 C 35.9863 -20.2148 37.1582 -21.3379 37.1582 -22.8027 L 37.1582 -47.8027 C 37.1582 -49.2188 35.9863 -50.3418 34.5703 -50.3418 C 33.1055 -50.3418 31.9824 -49.2188 31.9824 -47.8027 L 31.9824 -22.8027 C 31.9824 -21.3379 33.1055 -20.2148 34.5703 -20.2148 Z M 50.0488 -23.584 C 51.5137 -23.584 52.6855 -24.707 52.6855 -26.123 L 52.6855 -44.4336 C 52.6855 -45.8496 51.5137 -46.9727 50.0488 -46.9727 C 48.6328 -46.9727 47.5098 -45.8496 47.5098 -44.4336 L 47.5098 -26.123 C 47.5098 -24.707 48.6328 -23.584 50.0488 -23.584 Z M 65.625 -27.9297 C 67.0898 -27.9297 68.2129 -29.0527 68.2129 -30.5176 L 68.2129 -40.0391 C 68.2129 -41.5039 67.0898 -42.627 65.625 -42.627 C 64.1602 -42.627 63.0371 -41.4551 63.0371 -40.0391 L 63.0371 -30.5176 C 63.0371 -29.1016 64.1602 -27.9297 65.625 -27.9297 Z M 26.7578 -29.5898 C 28.2227 -29.5898 29.3945 -30.7129 29.3945 -32.1289 L 29.3945 -38.4277 C 29.3945 -39.8438 28.2227 -40.9668 26.7578 -40.9668 C 25.3418 -40.9668 24.2188 -39.8438 24.2188 -38.4277 L 24.2188 -32.1289 C 24.2188 -30.7129 25.3418 -29.5898 26.7578 -29.5898 Z"/>
  </g>
  <g id="Light-S" transform="matrix(1 0 0 1 1107.6 696)">
   <path d="M 45.5078 3.41797 C 66.6992 3.41797 84.2285 -14.0625 84.2285 -35.2539 C 84.2285 -56.4453 66.6504 -73.9258 45.5078 -73.9258 C 24.3164 -73.9258 6.83594 -56.4453 6.83594 -35.2539 C 6.83594 -14.0625 24.3652 3.41797 45.5078 3.41797 Z M 45.5078 -2.29492 C 27.2461 -2.29492 12.5977 -16.9922 12.5977 -35.2539 C 12.5977 -53.5156 27.1973 -68.2129 45.5078 -68.2129 C 63.7695 -68.2129 78.4668 -53.5156 78.5156 -35.2539 C 78.5156 -16.9922 63.8184 -2.29492 45.5078 -2.29492 Z M 41.6016 -10.2539 C 42.7734 -10.2539 43.6523 -11.1328 43.6523 -12.3047 L 43.6523 -58.2031 C 43.6523 -59.375 42.7734 -60.2539 41.6016 -60.2539 C 40.4297 -60.2539 39.5508 -59.375 39.5508 -58.2031 L 39.5508 -12.3047 C 39.5508 -11.084 40.3809 -10.2539 41.6016 -10.2539 Z M 57.0801 -15.918 C 58.3008 -15.918 59.1797 -16.8457 59.1797 -17.9688 L 59.1797 -52.5391 C 59.1797 -53.7109 58.3008 -54.5898 57.0801 -54.5898 C 55.957 -54.5898 55.0293 -53.7109 55.0293 -52.5391 L 55.0293 -17.9688 C 55.0293 -16.8457 55.957 -15.918 57.0801 -15.918 Z M 33.8867 -20.5566 C 35.0098 -20.5566 35.9375 -21.4355 35.9375 -22.6074 L 35.9375 -47.9492 C 35.9375 -49.0723 35.0098 -50 33.8867 -50 C 32.666 -50 31.7871 -49.0723 31.7871 -47.9492 L 31.7871 -22.6074 C 31.7871 -21.4355 32.666 -20.5566 33.8867 -20.5566 Z M 49.3652 -23.3398 C 50.5371 -23.3398 51.416 -24.2676 51.416 -25.3906 L 51.416 -45.1172 C 51.416 -46.2891 50.5371 -47.168 49.3652 -47.168 C 48.1934 -47.168 47.3145 -46.2891 47.3145 -45.1172 L 47.3145 -25.3906 C 47.3145 -24.2676 48.1934 -23.3398 49.3652 -23.3398 Z M 64.8926 -27.4902 C 66.0645 -27.4902 66.9434 -28.3691 66.9434 -29.541 L 66.9434 -40.9668 C 66.9434 -42.1875 66.0645 -43.0176 64.8926 -43.0176 C 63.7207 -43.0176 62.793 -42.1387 62.793 -40.9668 L 62.793 -29.541 C 62.793 -28.3691 63.7207 -27.4902 64.8926 -27.4902 Z M 26.0742 -29.6387 C 27.2461 -29.6387 28.1738 -30.5176 28.1738 -31.6895 L 28.1738 -38.8184 C 28.1738 -39.9902 27.2461 -40.8691 26.0742 -40.8691 C 24.9023 -40.8691 24.0234 -39.9902 24.0234 -38.8184 L 24.0234 -31.6895 C 24.0234 -30.5176 24.9023 -29.6387 26.0742 -29.6387 Z"/>
  </g>
  <g id="Thin-S" transform="matrix(1 0 0 1 811.867 696)">
   <path d="M 44.5801 2.49023 C 65.2832 2.49023 82.2754 -14.5508 82.2754 -35.2539 C 82.2754 -55.957 65.2344 -72.998 44.5312 -72.998 C 23.8281 -72.998 6.83594 -55.957 6.83594 -35.2539 C 6.83594 -14.5508 23.877 2.49023 44.5801 2.49023 Z M 44.5801 -0.927734 C 25.5859 -0.927734 10.2539 -16.3086 10.2539 -35.2539 C 10.2539 -54.1992 25.5859 -69.5801 44.5312 -69.5801 C 63.5254 -69.5801 78.8574 -54.1992 78.8574 -35.2539 C 78.8574 -16.3086 63.5254 -0.927734 44.5801 -0.927734 Z M 40.6738 -10.3516 C 41.4551 -10.3516 42.041 -10.9375 42.041 -11.7676 L 42.041 -58.7402 C 42.041 -59.5703 41.4551 -60.1562 40.6738 -60.1562 C 39.8438 -60.1562 39.2578 -59.5703 39.2578 -58.7402 L 39.2578 -11.7676 C 39.2578 -10.9375 39.8438 -10.3516 40.6738 -10.3516 Z M 56.1523 -16.9922 C 56.9336 -16.9922 57.5195 -17.5781 57.5195 -18.4082 L 57.5195 -52.0996 C 57.5195 -52.8809 56.9336 -53.4668 56.1523 -53.4668 C 55.3223 -53.4668 54.7363 -52.8809 54.7363 -52.0996 L 54.7363 -18.4082 C 54.7363 -17.5781 55.3223 -16.9922 56.1523 -16.9922 Z M 32.9102 -20.9473 C 33.7402 -20.9473 34.3262 -21.5332 34.3262 -22.3633 L 34.3262 -48.0957 C 34.3262 -48.9258 33.7402 -49.5117 32.9102 -49.5117 C 32.1289 -49.5117 31.543 -48.9258 31.543 -48.0957 L 31.543 -22.3633 C 31.543 -21.5332 32.1289 -20.9473 32.9102 -20.9473 Z M 48.3887 -23.0469 C 49.2188 -23.0469 49.8047 -23.6328 49.8047 -24.4629 L 49.8047 -46.0449 C 49.8047 -46.8262 49.2188 -47.4121 48.3887 -47.4121 C 47.6074 -47.4121 47.0215 -46.8262 47.0215 -46.0449 L 47.0215 -24.4629 C 47.0215 -23.6328 47.6074 -23.0469 48.3887 -23.0469 Z M 63.916 -26.9043 C 64.7461 -26.9043 65.2832 -27.4902 65.2832 -28.2715 L 65.2832 -42.1875 C 65.2832 -43.0176 64.7461 -43.6035 63.916 -43.6035 C 63.0859 -43.6035 62.5 -43.0176 62.5 -42.1875 L 62.5 -28.2715 C 62.5 -27.4902 63.0859 -26.9043 63.916 -26.9043 Z M 25.1465 -29.6875 C 25.9766 -29.6875 26.5625 -30.2734 26.5625 -31.1035 L 26.5625 -39.4043 C 26.5625 -40.1855 25.9766 -40.7715 25.1465 -40.7715 C 24.3652 -40.7715 23.7793 -40.1855 23.7793 -39.4043 L 23.7793 -31.1035 C 23.7793 -30.2734 24.3652 -29.6875 25.1465 -29.6875 Z"/>
  </g>
  <g id="Ultralight-S" transform="matrix(1 0 0 1 515.644 696)">
   <path d="M 44.043 1.95312 C 64.502 1.95312 81.2988 -14.7949 81.2988 -35.2539 C 81.2988 -55.7129 64.502 -72.4609 44.043 -72.4609 C 23.584 -72.4609 6.83594 -55.7129 6.83594 -35.2539 C 6.83594 -14.7949 23.584 1.95312 44.043 1.95312 Z M 44.043 -0.244141 C 24.7559 -0.244141 9.08203 -15.9668 9.08203 -35.2539 C 9.08203 -54.541 24.7559 -70.2637 44.043 -70.2637 C 63.3789 -70.2637 79.0527 -54.541 79.0527 -35.2539 C 79.0527 -15.9668 63.3789 -0.244141 44.043 -0.244141 Z M 40.1367 -10.4004 C 40.7715 -10.4004 41.2109 -10.8398 41.2109 -11.4258 L 41.2109 -59.082 C 41.2109 -59.668 40.7715 -60.1074 40.1367 -60.1074 C 39.502 -60.1074 39.1113 -59.668 39.1113 -59.082 L 39.1113 -11.4258 C 39.1113 -10.791 39.502 -10.4004 40.1367 -10.4004 Z M 55.6152 -17.5293 C 56.25 -17.5293 56.6895 -17.9688 56.6895 -18.6035 L 56.6895 -51.8555 C 56.6895 -52.4902 56.25 -52.9297 55.6152 -52.9297 C 54.9805 -52.9297 54.5898 -52.4902 54.5898 -51.8555 L 54.5898 -18.6035 C 54.5898 -17.9688 54.9805 -17.5293 55.6152 -17.5293 Z M 32.4219 -21.1914 C 33.0566 -21.1914 33.4961 -21.6309 33.4961 -22.2656 L 33.4961 -48.2422 C 33.4961 -48.8281 33.0566 -49.2676 32.4219 -49.2676 C 31.7871 -49.2676 31.3965 -48.8281 31.3965 -48.2422 L 31.3965 -22.2656 C 31.3965 -21.6309 31.7871 -21.1914 32.4219 -21.1914 Z M 47.9004 -22.9004 C 48.5352 -22.9004 48.9746 -23.291 48.9746 -23.9258 L 48.9746 -46.5332 C 48.9746 -47.168 48.5352 -47.5586 47.9004 -47.5586 C 47.2656 -47.5586 46.875 -47.168 46.875 -46.5332 L 46.875 -23.9258 C 46.875 -23.291 47.2656 -22.9004 47.9004 -22.9004 Z M 63.3789 -26.5625 C 64.0137 -26.5625 64.4531 -27.002 64.4531 -27.6367 L 64.4531 -42.8223 C 64.4531 -43.457 64.0137 -43.8965 63.3789 -43.8965 C 62.7441 -43.8965 62.3535 -43.457 62.3535 -42.8223 L 62.3535 -27.6367 C 62.3535 -27.002 62.7441 -26.5625 63.3789 -26.5625 Z M 24.6582 -29.7363 C 25.293 -29.7363 25.7324 -30.1758 25.7324 -30.7617 L 25.7324 -39.6973 C 25.7324 -40.2832 25.293 -40.7227 24.6582 -40.7227 C 24.0234 -40.7227 23.6328 -40.2832 23.6328 -39.6973 L 23.6328 -30.7617 C 23.6328 -30.1758 24.0234 -29.7363 24.6582 -29.7363 Z"/>
  </g>
 </g>
</svg>
